<?xml version="1.0" encoding="UTF-8" standalone="no"?>
<!-- Created with Inkscape (http://www.inkscape.org/) -->

<svg
   width="102.44481mm"
   height="78.875114mm"
   viewBox="0 0 102.44481 78.875114"
   version="1.1"
   id="svg5"
   xml:space="preserve"
   inkscape:version="1.2 (dc2aedaf03, 2022-05-15)"
   sodipodi:docname="logo.svg"
   inkscape:export-filename="logo.svg"
   inkscape:export-xdpi="96"
   inkscape:export-ydpi="96"
   xmlns:inkscape="http://www.inkscape.org/namespaces/inkscape"
   xmlns:sodipodi="http://sodipodi.sourceforge.net/DTD/sodipodi-0.dtd"
   xmlns="http://www.w3.org/2000/svg"
   xmlns:svg="http://www.w3.org/2000/svg"><sodipodi:namedview
     id="namedview7"
     pagecolor="#ffffff"
     bordercolor="#000000"
     borderopacity="0.25"
     inkscape:showpageshadow="2"
     inkscape:pageopacity="0.0"
     inkscape:pagecheckerboard="0"
     inkscape:deskcolor="#d1d1d1"
     inkscape:document-units="mm"
     showgrid="false"
     inkscape:zoom="0.2102413"
     inkscape:cx="76.103029"
     inkscape:cy="561.25984"
     inkscape:window-width="2400"
     inkscape:window-height="1529"
     inkscape:window-x="-8"
     inkscape:window-y="-8"
     inkscape:window-maximized="1"
     inkscape:current-layer="layer1" /><defs
     id="defs2" /><g
     inkscape:label="Layer 1"
     inkscape:groupmode="layer"
     id="layer1"
     transform="translate(-43.163194,-80.117529)"><path
       style="fill:#124974;fill-opacity:1;stroke-width:0.0799472"
       d="m 49.737152,158.84067 c -0.206081,-0.0784 -0.497004,-0.21823 -0.646496,-0.31063 -0.149493,-0.0924 -0.45049,-0.35755 -0.668883,-0.58926 -0.218393,-0.2317 -0.893728,-1.17678 -1.500744,-2.10017 -0.607015,-0.92339 -1.273985,-1.93073 -1.482156,-2.23853 -0.208169,-0.30779 -0.688482,-1.04711 -1.067362,-1.64292 -0.378879,-0.59582 -0.805936,-1.33333 -0.949014,-1.63892 -0.229956,-0.49115 -0.260044,-0.63448 -0.259292,-1.23518 6.95e-4,-0.55843 0.03724,-0.75858 0.204987,-1.12291 0.112276,-0.24385 0.31473,-0.56764 0.449899,-0.71953 0.135169,-0.15189 0.52727,-0.45021 0.871337,-0.66293 0.344066,-0.21273 1.237172,-0.74754 1.98468,-1.18849 0.747508,-0.44094 1.682892,-0.99192 2.078631,-1.22438 0.395739,-0.23247 1.325458,-0.78593 2.066042,-1.22992 0.740584,-0.44399 1.362057,-0.80726 1.381051,-0.80726 0.01899,0 0.258505,-0.13776 0.532246,-0.30613 0.273742,-0.16838 0.839486,-0.49885 1.257211,-0.7344 0.417725,-0.23555 0.939382,-0.54151 1.159237,-0.67991 0.219855,-0.13841 0.921393,-0.56096 1.558973,-0.939 0.63758,-0.37805 1.375094,-0.80105 1.63892,-0.94 0.263826,-0.13895 0.71353,-0.39246 0.999342,-0.56337 0.285812,-0.1709 0.879421,-0.50529 1.319131,-0.74309 0.43971,-0.2378 0.997343,-0.49941 1.239184,-0.58137 0.407716,-0.13816 0.698573,-0.14721 3.997367,-0.12437 1.956708,0.0135 3.588258,0.0549 3.625658,0.092 0.0374,0.037 -0.21444,0.27745 -0.55963,0.53424 -0.3452,0.25678 -0.89946,0.68309 -1.23169,0.94733 -0.33223,0.26424 -0.977101,0.76825 -1.433043,1.12002 -0.455943,0.35177 -1.385033,1.08371 -2.064644,1.62653 -0.679611,0.54282 -1.437817,1.14924 -1.684904,1.3476 -0.247085,0.19837 -0.522083,0.41981 -0.611106,0.49208 -0.08902,0.0723 -0.41281,0.33251 -0.719526,0.57829 -0.306716,0.24578 -1.367133,1.08876 -2.356481,1.87329 -0.989348,0.78452 -2.220242,1.76299 -2.735321,2.17437 -0.515078,0.41139 -0.95939,0.785 -0.98736,0.83026 -0.02797,0.0453 -0.03282,0.10032 -0.01077,0.12237 0.02205,0.0221 0.286477,-0.13511 0.587624,-0.34924 0.301148,-0.21412 0.943281,-0.63615 1.426962,-0.93783 0.483681,-0.30168 1.419065,-0.90246 2.078631,-1.33507 0.659565,-0.43261 1.235186,-0.8135 1.279157,-0.84642 0.04397,-0.0329 1.371784,-0.9233 2.950694,-1.97861 1.775239,-1.18652 2.883725,-1.88059 2.904753,-1.81879 0.0187,0.055 0.07139,0.0999 0.117082,0.0999 0.05411,0 0.05174,-0.0378 -0.0068,-0.10831 -0.07171,-0.0864 0.100088,-0.2429 0.849642,-0.77398 0.51674,-0.36612 1.19137,-0.84073 1.49916,-1.0547 0.3078,-0.21397 1.0633,-0.72216 1.6789,-1.12932 0.61559,-0.40716 1.37109,-0.91549 1.67889,-1.12962 0.3078,-0.21413 0.88342,-0.60427 1.27916,-0.86698 0.39574,-0.2627 1.04331,-0.68855 1.43905,-0.94633 0.39574,-0.25778 0.76298,-0.50417 0.81609,-0.54754 0.0531,-0.0434 0.1195,-0.0789 0.14755,-0.0789 0.0281,0 0.15548,-0.0744 0.28319,-0.16534 0.19712,-0.14036 0.2322,-0.14603 0.2322,-0.0375 0,0.0703 -0.11122,0.56742 -0.24715,1.10472 -0.13593,0.5373 -0.28066,1.10975 -0.32163,1.27211 -0.0685,0.27138 -0.20034,0.37939 -1.63496,1.3391 -0.85826,0.57415 -1.71966,1.16083 -1.91422,1.30375 -0.25002,0.18366 -0.44632,0.43564 -0.66948,0.85945 -0.17366,0.32978 -0.56601,1.17533 -0.87189,1.879 -0.30589,0.70367 -0.8459,1.8729 -1.20003,2.59829 -0.55071,1.12806 -0.72437,1.40563 -1.20025,1.91848 -0.30601,0.32979 -1.055177,0.97029 -1.664818,1.42334 -0.609642,0.45305 -1.827965,1.35354 -2.707386,2.00109 -0.879421,0.64754 -1.940722,1.42545 -2.358447,1.72868 -0.417724,0.30323 -1.227191,0.89598 -1.798815,1.31723 -0.571623,0.42125 -1.201208,0.87351 -1.399078,1.00502 -0.19787,0.13151 -0.377751,0.25997 -0.399737,0.28546 -0.02199,0.0255 -0.399736,0.31084 -0.839447,0.63412 -0.43971,0.32329 -1.12326,0.82706 -1.518999,1.1195 -0.395739,0.29244 -1.037352,0.76268 -1.425806,1.04498 -0.388454,0.28232 -1.014986,0.74255 -1.392293,1.02275 -0.377307,0.28021 -0.868948,0.59465 -1.092535,0.69876 -0.320549,0.14926 -0.533329,0.18785 -1.006127,0.18246 -0.366619,-0.004 -0.745198,-0.0622 -0.974297,-0.14946 z m -1.024387,-1.00138 c 0,-0.022 -0.01799,-0.04 -0.03997,-0.04 -0.02199,0 -0.03997,0.018 -0.03997,0.04 0,0.022 0.01799,0.04 0.03997,0.04 0.02199,0 0.03997,-0.018 0.03997,-0.04 z m 5.706766,-1.20336 c 0.0273,-0.0711 0.0139,-0.10324 -0.03142,-0.0752 -0.04347,0.0269 -0.07903,0.0827 -0.07903,0.12407 0,0.0414 0.01414,0.0752 0.03142,0.0752 0.01728,0 0.05284,-0.0558 0.07903,-0.12407 z m 2.847599,-1.99453 c 0,-0.022 -0.01799,-0.04 -0.03997,-0.04 -0.02199,0 -0.03997,0.018 -0.03997,0.04 0,0.022 0.01799,0.04 0.03997,0.04 0.02198,0 0.03997,-0.018 0.03997,-0.04 z m 0.239842,-0.31979 c 0,-0.022 -0.01799,-0.04 -0.03997,-0.04 -0.02199,0 -0.03997,0.018 -0.03997,0.04 0,0.022 0.01799,0.04 0.03997,0.04 0.02199,0 0.03997,-0.018 0.03997,-0.04 z m 0.239842,0.005 c 0,-0.0194 -0.03598,-0.0575 -0.07995,-0.0847 -0.04397,-0.0272 -0.07995,-0.0113 -0.07995,0.0353 0,0.0466 0.03598,0.0847 0.07995,0.0847 0.04397,0 0.07995,-0.0159 0.07995,-0.0353 z m 0.07995,-0.16461 c 0,-0.022 -0.01799,-0.04 -0.03997,-0.04 -0.02199,0 -0.03997,0.018 -0.03997,0.04 0,0.022 0.01799,0.04 0.03997,0.04 0.02199,0 0.03997,-0.018 0.03997,-0.04 z m 0.719525,-0.47968 c 0,-0.022 -0.01799,-0.04 -0.03997,-0.04 -0.02198,0 -0.03997,0.018 -0.03997,0.04 0,0.022 0.01799,0.04 0.03997,0.04 0.02199,0 0.03997,-0.018 0.03997,-0.04 z m 2.798157,-2.07863 c 0,-0.022 -0.01799,-0.04 -0.03997,-0.04 -0.02199,0 -0.03997,0.018 -0.03997,0.04 0,0.022 0.01799,0.04 0.03997,0.04 0.02199,0 0.03997,-0.018 0.03997,-0.04 z m 2.878105,-2.31848 c 0,-0.022 -0.01799,-0.04 -0.03997,-0.04 -0.02199,0 -0.03997,0.018 -0.03997,0.04 0,0.022 0.01799,0.04 0.03997,0.04 0.02199,0 0.03997,-0.018 0.03997,-0.04 z m 2.238525,-1.75884 c 0,-0.022 -0.01799,-0.04 -0.03997,-0.04 -0.02199,0 -0.03997,0.018 -0.03997,0.04 0,0.022 0.01799,0.04 0.03997,0.04 0.02199,0 0.03997,-0.018 0.03997,-0.04 z m -18.387888,-2.63826 c 0,-0.022 -0.01799,-0.04 -0.03997,-0.04 -0.02199,0 -0.03997,0.018 -0.03997,0.04 0,0.022 0.01799,0.04 0.03997,0.04 0.02199,0 0.03997,-0.018 0.03997,-0.04 z m 0.159895,-0.0799 c 0,-0.022 -0.01799,-0.04 -0.03997,-0.04 -0.02199,0 -0.03997,0.018 -0.03997,0.04 0,0.022 0.01799,0.04 0.03997,0.04 0.02199,0 0.03997,-0.018 0.03997,-0.04 z m 21.505838,-0.91939 c 0,-0.044 -0.0561,-0.0799 -0.12464,-0.0799 -0.0686,0 -0.10241,0.036 -0.0752,0.0799 0.0272,0.044 0.0833,0.0799 0.12464,0.0799 0.0414,0 0.0752,-0.036 0.0752,-0.0799 z m -7.435107,-0.04 c 0,-0.022 -0.01799,-0.04 -0.03997,-0.04 -0.02199,0 -0.03997,0.018 -0.03997,0.04 0,0.022 0.01799,0.04 0.03997,0.04 0.02199,0 0.03997,-0.018 0.03997,-0.04 z m -12.338538,-0.25316 c -0.02931,-0.0293 -0.0533,-0.005 -0.0533,0.0533 0,0.0586 0.02398,0.0826 0.0533,0.0533 0.02931,-0.0293 0.02931,-0.0773 0,-0.10659 z m 19.373905,-0.0666 c 0,-0.022 -0.018,-0.04 -0.04,-0.04 -0.022,0 -0.04,0.018 -0.04,0.04 0,0.022 0.018,0.04 0.04,0.04 0.022,0 0.04,-0.018 0.04,-0.04 z m -18.547783,-0.23985 c 0,-0.022 -0.01799,-0.04 -0.03997,-0.04 -0.02199,0 -0.03997,0.018 -0.03997,0.04 0,0.022 0.01799,0.04 0.03997,0.04 0.02199,0 0.03997,-0.018 0.03997,-0.04 z m 0.639578,-0.15989 c 0,-0.022 -0.01799,-0.04 -0.03997,-0.04 -0.02199,0 -0.03997,0.018 -0.03997,0.04 0,0.022 0.01799,0.04 0.03997,0.04 0.02199,0 0.03997,-0.018 0.03997,-0.04 z m 18.547785,-0.23984 c 0,-0.022 -0.018,-0.04 -0.04,-0.04 -0.022,0 -0.04,0.018 -0.04,0.04 0,0.022 0.018,0.04 0.04,0.04 0.022,0 0.04,-0.018 0.04,-0.04 z m -3.597632,-1.59422 c 0,-0.0194 -0.03598,-0.0575 -0.07995,-0.0847 -0.04397,-0.0272 -0.07995,-0.0113 -0.07995,0.0353 0,0.0466 0.03598,0.0847 0.07995,0.0847 0.04397,0 0.07995,-0.0159 0.07995,-0.0353 z m 0.479684,-0.56435 c 0,-0.022 -0.01799,-0.04 -0.03997,-0.04 -0.02199,0 -0.03997,0.018 -0.03997,0.04 0,0.022 0.01799,0.04 0.03997,0.04 0.02198,0 0.03997,-0.018 0.03997,-0.04 z m -11.11268,-0.23984 c 0,-0.022 -0.01799,-0.04 -0.03997,-0.04 -0.02199,0 -0.03997,0.018 -0.03997,0.04 0,0.022 0.01799,0.04 0.03997,0.04 0.02199,0 0.03997,-0.018 0.03997,-0.04 z m 11.512416,0 c 0,-0.022 -0.01799,-0.04 -0.03997,-0.04 -0.02199,0 -0.03997,0.018 -0.03997,0.04 0,0.022 0.01799,0.04 0.03997,0.04 0.02198,0 0.03997,-0.018 0.03997,-0.04 z m 4.636942,-1.27916 c 0,-0.022 -0.018,-0.04 -0.04,-0.04 -0.022,0 -0.04,0.018 -0.04,0.04 0,0.022 0.018,0.04 0.04,0.04 0.022,0 0.04,-0.018 0.04,-0.04 z m 0.31979,-0.15989 c 0,-0.022 -0.018,-0.04 -0.04,-0.04 -0.022,0 -0.04,0.018 -0.04,0.04 0,0.022 0.018,0.04 0.04,0.04 0.022,0 0.04,-0.018 0.04,-0.04 z m 0.1599,-0.0752 c 0,-0.0194 -0.0415,-0.0609 -0.0923,-0.0923 -0.0572,-0.0353 -0.0706,-0.0219 -0.0352,0.0353 0.0314,0.0508 0.0729,0.0923 0.0923,0.0923 0.0194,0 0.0353,-0.0159 0.0353,-0.0352 z m 0.23984,-0.16462 c 0,-0.022 -0.018,-0.04 -0.04,-0.04 -0.022,0 -0.04,0.018 -0.04,0.04 0,0.022 0.018,0.04 0.04,0.04 0.022,0 0.04,-0.018 0.04,-0.04 z m -0.15989,-0.0799 c 0,-0.022 -0.018,-0.04 -0.04,-0.04 -0.022,0 -0.04,0.018 -0.04,0.04 0,0.022 0.018,0.04 0.04,0.04 0.022,0 0.04,-0.018 0.04,-0.04 z m -13.511105,-0.31979 c 0,-0.022 -0.01799,-0.04 -0.03997,-0.04 -0.02199,0 -0.03997,0.018 -0.03997,0.04 0,0.022 0.01799,0.04 0.03997,0.04 0.02199,0 0.03997,-0.018 0.03997,-0.04 z m 13.910835,0 c 0,-0.022 -0.018,-0.04 -0.04,-0.04 -0.022,0 -0.04,0.018 -0.04,0.04 0,0.022 0.018,0.04 0.04,0.04 0.022,0 0.04,-0.018 0.04,-0.04 z m -12.951467,-0.47969 c 0,-0.022 -0.01799,-0.04 -0.03997,-0.04 -0.02199,0 -0.03997,0.018 -0.03997,0.04 0,0.022 0.01799,0.04 0.03997,0.04 0.02199,0 0.03997,-0.018 0.03997,-0.04 z m 14.230627,-0.15989 c 0,-0.022 -0.018,-0.04 -0.04,-0.04 -0.022,0 -0.04,0.018 -0.04,0.04 0,0.022 0.018,0.04 0.04,0.04 0.022,0 0.04,-0.018 0.04,-0.04 z m -2.55831,-0.1599 c 0,-0.022 -0.018,-0.04 -0.04,-0.04 -0.022,0 -0.04,0.018 -0.04,0.04 0,0.022 0.018,0.04 0.04,0.04 0.022,0 0.04,-0.018 0.04,-0.04 z m 2.79815,-0.15989 c 0,-0.022 -0.018,-0.04 -0.04,-0.04 -0.022,0 -0.04,0.018 -0.04,0.04 0,0.022 0.018,0.04 0.04,0.04 0.022,0 0.04,-0.018 0.04,-0.04 z m 0.39974,-0.08 c 0,-0.022 -0.018,-0.04 -0.04,-0.04 -0.022,0 -0.04,0.018 -0.04,0.04 0,0.022 0.018,0.04 0.04,0.04 0.022,0 0.04,-0.018 0.04,-0.04 z m -2.55832,-0.15989 c 0,-0.022 -0.018,-0.04 -0.04,-0.04 -0.022,0 -0.04,0.018 -0.04,0.04 0,0.022 0.018,0.04 0.04,0.04 0.022,0 0.04,-0.018 0.04,-0.04 z m -10.872835,-0.0799 c 0,-0.022 -0.01799,-0.04 -0.03997,-0.04 -0.02199,0 -0.03997,0.018 -0.03997,0.04 0,0.022 0.01799,0.04 0.03997,0.04 0.02199,0 0.03997,-0.018 0.03997,-0.04 z m 7.355155,-0.0799 c 0,-0.022 -0.018,-0.04 -0.04,-0.04 -0.022,0 -0.04,0.018 -0.04,0.04 0,0.022 0.018,0.04 0.04,0.04 0.022,0 0.04,-0.018 0.04,-0.04 z m 3.67758,0 c 0,-0.022 -0.018,-0.04 -0.04,-0.04 -0.022,0 -0.04,0.018 -0.04,0.04 0,0.022 0.018,0.04 0.04,0.04 0.022,0 0.04,-0.018 0.04,-0.04 z m 0.71952,-0.0799 c 0,-0.022 -0.018,-0.04 -0.04,-0.04 -0.022,0 -0.04,0.018 -0.04,0.04 0,0.022 0.018,0.04 0.04,0.04 0.022,0 0.04,-0.018 0.04,-0.04 z m -4.3971,-0.15989 c 0,-0.022 -0.018,-0.04 -0.04,-0.04 -0.022,0 -0.04,0.018 -0.04,0.04 0,0.022 0.018,0.04 0.04,0.04 0.022,0 0.04,-0.018 0.04,-0.04 z m 0.31979,-0.0799 c 0,-0.022 -0.018,-0.04 -0.04,-0.04 -0.022,0 -0.04,0.018 -0.04,0.04 0,0.022 0.018,0.04 0.04,0.04 0.022,0 0.04,-0.018 0.04,-0.04 z m 6.39579,-1.83878 c 0,-0.022 -0.018,-0.04 -0.04,-0.04 -0.022,0 -0.04,0.018 -0.04,0.04 0,0.022 0.018,0.04 0.04,0.04 0.022,0 0.04,-0.018 0.04,-0.04 z m 0.39973,-0.0447 c 0,-0.0466 0.0415,-0.059 0.0923,-0.0276 0.0572,0.0353 0.0706,0.0219 0.0353,-0.0353 -0.0314,-0.0508 -0.0871,-0.0923 -0.12372,-0.0923 -0.0367,0 -0.0874,0.054 -0.11269,0.11992 -0.0253,0.066 -0.0112,0.11992 0.0314,0.11992 0.0426,0 0.0774,-0.0381 0.0774,-0.0847 z m -0.23984,-0.0352 c 0,-0.022 -0.018,-0.04 -0.04,-0.04 -0.022,0 -0.04,0.018 -0.04,0.04 0,0.022 0.018,0.04 0.04,0.04 0.022,0 0.04,-0.018 0.04,-0.04 z m 0.45304,-0.25317 c -0.0293,-0.0293 -0.0533,-0.005 -0.0533,0.0533 0,0.0586 0.024,0.0826 0.0533,0.0533 0.0293,-0.0293 0.0293,-0.0773 0,-0.1066 z m 60.942199,24.21679 c -0.24421,-0.12915 -0.75119,-0.46531 -1.12663,-0.74702 -0.37544,-0.2817 -1.29089,-0.95846 -2.03434,-1.50391 -0.74346,-0.54546 -1.56759,-1.14947 -1.83142,-1.34227 -0.26383,-0.1928 -0.78548,-0.57301 -1.15924,-0.84492 -0.37375,-0.27191 -1.43505,-1.05476 -2.35844,-1.73968 -0.9234,-0.68491 -2.60959,-1.92705 -3.7471,-2.76032 -1.1375,-0.83326 -2.48975,-1.83988 -3.00498,-2.23692 -0.51525,-0.39705 -1.13959,-0.94917 -1.38743,-1.22694 -0.33894,-0.37984 -0.60678,-0.82515 -1.08055,-1.79644 -0.34645,-0.71027 -0.97988,-2.08288 -1.40762,-3.05025 -0.42774,-0.96735 -0.81978,-1.81406 -0.8712,-1.88157 -0.0514,-0.0675 -0.39928,-0.34003 -0.77304,-0.6056 -0.37375,-0.26558 -1.29115,-0.89225 -2.03865,-1.3926 -0.74751,-0.50035 -1.88077,-1.282 -2.51835,-1.73699 -0.63758,-0.45499 -1.519,-1.06727 -1.95871,-1.36062 -0.43971,-0.29336 -1.16823,-0.79755 -1.61893,-1.12043 -0.55936,-0.40073 -0.81946,-0.63664 -0.81946,-0.74325 0,-0.0859 0.16268,-0.48011 0.36151,-0.876 0.30858,-0.61442 0.38192,-0.70889 0.50093,-0.64519 0.0767,0.041 0.55258,0.34496 1.05755,0.67539 0.50498,0.33043 1.06205,0.70477 1.23793,0.83186 0.17588,0.12709 0.73352,0.51448 1.23918,0.86087 0.50567,0.34639 1.6749,1.1375 2.59829,1.75803 0.92339,0.62052 2.24954,1.522 2.947,2.00328 0.69745,0.48128 1.34503,0.92655 1.43906,0.98951 0.094,0.063 0.84584,0.56663 1.67072,1.11926 0.82488,0.55264 2.71363,1.82585 4.19723,2.82935 1.4836,1.00351 3.65791,2.46055 4.83178,3.23787 1.17388,0.77732 2.64706,1.74494 3.27374,2.15026 0.62668,0.40533 1.15244,0.72393 1.16836,0.70801 0.0159,-0.0159 -0.1103,-0.16767 -0.28049,-0.33722 -0.17018,-0.16955 -0.59509,-0.53265 -0.94423,-0.80689 -0.34915,-0.27423 -1.19668,-0.9398 -1.88343,-1.47902 -0.68673,-0.53923 -1.72468,-1.35816 -2.30655,-1.81986 -0.58187,-0.4617 -1.26433,-1.00134 -1.51657,-1.19921 -0.25226,-0.19787 -1.24697,-0.99046 -2.21048,-1.76131 -0.9635,-0.77086 -2.14367,-1.70356 -2.62259,-2.07266 -0.47891,-0.3691 -1.02149,-0.7997 -1.20573,-0.95688 -0.18424,-0.15719 -0.61053,-0.49973 -0.94732,-0.76121 -0.39365,-0.30563 -0.57839,-0.4964 -0.51728,-0.53416 0.0523,-0.0323 0.90639,-0.0697 1.89802,-0.083 0.99163,-0.0134 2.57646,-0.0242 3.52184,-0.024 1.69848,2.3e-4 1.72596,0.003 2.31691,0.22903 0.32893,0.12583 1.22833,0.58795 1.99868,1.02693 0.77035,0.43897 1.74242,0.99707 2.16014,1.24021 0.41772,0.24315 0.95737,0.55117 1.19921,0.68451 0.24184,0.13333 0.92539,0.5358 1.519,0.89437 0.59361,0.35857 1.47503,0.88574 1.95871,1.17149 0.48368,0.28575 1.20321,0.70856 1.59895,0.93957 0.39573,0.23101 0.93538,0.54699 1.19921,0.70217 0.26382,0.15519 0.78548,0.46999 1.15923,0.69955 0.37376,0.22956 1.28113,0.77419 2.01638,1.21029 0.73525,0.43611 1.63037,0.96851 1.98914,1.18312 0.35878,0.21461 0.78962,0.52749 0.95741,0.69528 0.16781,0.1678 0.36658,0.42393 0.44172,0.56917 0.0751,0.14525 0.18456,0.44396 0.24314,0.66382 0.0586,0.21985 0.10695,0.55377 0.10747,0.74203 9.1e-4,0.18827 -0.0737,0.56602 -0.16496,0.83945 -0.0913,0.27343 -0.25516,0.65092 -0.36426,0.83886 -0.1091,0.18794 -0.22825,0.32324 -0.26478,0.30066 -0.0365,-0.0226 -0.0615,0.0114 -0.0555,0.0756 0.006,0.0641 -0.27684,0.56984 -0.62861,1.12377 -0.35177,0.55394 -1.30948,2.02107 -2.12826,3.2603 -0.96662,1.46302 -1.63222,2.3872 -1.89803,2.63543 -0.22514,0.21025 -0.58057,0.45866 -0.78982,0.552 -0.27126,0.12099 -0.59848,0.1798 -1.13997,0.20484 -0.7198,0.0333 -0.78272,0.0228 -1.20353,-0.19971 z m 4.00169,-1.97872 c 0,-0.022 -0.018,-0.04 -0.04,-0.04 -0.022,0 -0.04,0.018 -0.04,0.04 0,0.022 0.018,0.04 0.04,0.04 0.022,0 0.04,-0.018 0.04,-0.04 z m 0,-0.19987 c 0,-0.044 -0.036,-0.0799 -0.0799,-0.0799 -0.044,0 -0.0799,0.036 -0.0799,0.0799 0,0.044 0.036,0.0799 0.0799,0.0799 0.044,0 0.0799,-0.036 0.0799,-0.0799 z m 0.31978,-0.35976 c 0,-0.022 -0.018,-0.04 -0.04,-0.04 -0.022,0 -0.04,0.018 -0.04,0.04 0,0.022 0.018,0.04 0.04,0.04 0.022,0 0.04,-0.018 0.04,-0.04 z m -13.59104,-4.47706 c 0,-0.022 -0.018,-0.04 -0.04,-0.04 -0.022,0 -0.04,0.018 -0.04,0.04 0,0.022 0.018,0.04 0.04,0.04 0.022,0 0.04,-0.018 0.04,-0.04 z m 16.68234,-0.25316 c -0.0293,-0.0293 -0.0533,-0.005 -0.0533,0.0533 0,0.0586 0.024,0.0826 0.0533,0.0533 0.0293,-0.0293 0.0293,-0.0773 0,-0.10659 z m -17.16203,-0.0666 c 0,-0.022 -0.018,-0.04 -0.04,-0.04 -0.022,0 -0.04,0.018 -0.04,0.04 0,0.022 0.018,0.04 0.04,0.04 0.022,0 0.04,-0.018 0.04,-0.04 z m 0.23985,0 c 0,-0.022 -0.018,-0.04 -0.04,-0.04 -0.022,0 -0.04,0.018 -0.04,0.04 0,0.022 0.018,0.04 0.04,0.04 0.022,0 0.04,-0.018 0.04,-0.04 z m -0.23985,-0.1599 c 0,-0.022 -0.018,-0.04 -0.04,-0.04 -0.022,0 -0.04,0.018 -0.04,0.04 0,0.022 0.018,0.04 0.04,0.04 0.022,0 0.04,-0.018 0.04,-0.04 z m -1.59894,-1.11926 c 0,-0.022 -0.018,-0.04 -0.04,-0.04 -0.022,0 -0.04,0.018 -0.04,0.04 0,0.022 0.018,0.04 0.04,0.04 0.022,0 0.04,-0.018 0.04,-0.04 z m -2.71821,-2.15858 c 0,-0.022 -0.018,-0.04 -0.04,-0.04 -0.022,0 -0.04,0.018 -0.04,0.04 0,0.022 0.018,0.04 0.04,0.04 0.022,0 0.04,-0.018 0.04,-0.04 z m 10.87283,-0.0799 c 0,-0.022 -0.018,-0.04 -0.04,-0.04 -0.022,0 -0.04,0.018 -0.04,0.04 0,0.022 0.018,0.04 0.04,0.04 0.022,0 0.04,-0.018 0.04,-0.04 z m -11.67231,-0.23984 c 0,-0.022 -0.018,-0.04 -0.04,-0.04 -0.022,0 -0.04,0.018 -0.04,0.04 0,0.022 0.018,0.04 0.04,0.04 0.022,0 0.04,-0.018 0.04,-0.04 z m 21.18605,-1.19921 c 0,-0.022 -0.018,-0.04 -0.04,-0.04 -0.022,0 -0.04,0.018 -0.04,0.04 0,0.022 0.018,0.04 0.04,0.04 0.022,0 0.04,-0.018 0.04,-0.04 z m -15.15059,-1.55806 c 0.028,-0.0453 -0.004,-0.0587 -0.0752,-0.0314 -0.0682,0.0262 -0.12407,0.0617 -0.12407,0.079 0,0.0173 0.0339,0.0314 0.0752,0.0314 0.0414,0 0.0972,-0.0356 0.12407,-0.079 z m 12.51233,0.0391 c 0,-0.022 -0.018,-0.04 -0.04,-0.04 -0.022,0 -0.04,0.018 -0.04,0.04 0,0.022 0.018,0.04 0.04,0.04 0.022,0 0.04,-0.018 0.04,-0.04 z m -13.43116,-0.55491 c 0,-0.0194 -0.0415,-0.0609 -0.0923,-0.0923 -0.0572,-0.0353 -0.0706,-0.0219 -0.0353,0.0353 0.0314,0.0508 0.0729,0.0923 0.0923,0.0923 0.0194,0 0.0353,-0.0159 0.0353,-0.0352 z m -7.99473,-0.56435 c 0,-0.022 -0.018,-0.04 -0.04,-0.04 -0.022,0 -0.04,0.018 -0.04,0.04 0,0.022 0.018,0.04 0.04,0.04 0.022,0 0.04,-0.018 0.04,-0.04 z m 9.19394,-0.31979 c 0,-0.022 -0.018,-0.04 -0.04,-0.04 -0.022,0 -0.04,0.018 -0.04,0.04 0,0.022 0.018,0.04 0.04,0.04 0.022,0 0.04,-0.018 0.04,-0.04 z m -4.55699,-1.519 c 0,-0.022 -0.018,-0.04 -0.04,-0.04 -0.022,0 -0.04,0.018 -0.04,0.04 0,0.022 0.018,0.04 0.04,0.04 0.022,0 0.04,-0.018 0.04,-0.04 z m 1.66345,-0.88153 c -0.0246,-0.0246 -0.0693,0.0198 -0.0993,0.0986 -0.0434,0.11394 -0.0342,0.12312 0.0447,0.0447 0.0546,-0.0542 0.0792,-0.11874 0.0546,-0.14336 z m -0.2244,0.0821 c 0,-0.022 -0.018,-0.04 -0.04,-0.04 -0.022,0 -0.04,0.018 -0.04,0.04 0,0.022 0.018,0.04 0.04,0.04 0.022,0 0.04,-0.018 0.04,-0.04 z m -2.87811,-0.15989 c 0,-0.022 -0.018,-0.04 -0.04,-0.04 -0.022,0 -0.04,0.018 -0.04,0.04 0,0.022 0.018,0.04 0.04,0.04 0.022,0 0.04,-0.018 0.04,-0.04 z m 8.63432,-1.83879 c 0,-0.022 -0.018,-0.04 -0.04,-0.04 -0.022,0 -0.04,0.018 -0.04,0.04 0,0.022 0.018,0.04 0.04,0.04 0.022,0 0.04,-0.018 0.04,-0.04 z m -14.31058,-0.15989 c 0,-0.022 -0.018,-0.04 -0.04,-0.04 -0.022,0 -0.04,0.018 -0.04,0.04 0,0.022 0.018,0.04 0.04,0.04 0.022,0 0.04,-0.018 0.04,-0.04 z m -0.15989,-0.31979 c 0,-0.022 -0.018,-0.04 -0.04,-0.04 -0.022,0 -0.04,0.018 -0.04,0.04 0,0.022 0.018,0.04 0.04,0.04 0.022,0 0.04,-0.018 0.04,-0.04 z m 5.51636,0 c 0,-0.022 -0.018,-0.04 -0.04,-0.04 -0.022,0 -0.04,0.018 -0.04,0.04 0,0.022 0.018,0.04 0.04,0.04 0.022,0 0.04,-0.018 0.04,-0.04 z m 0.1599,0 c 0,-0.022 -0.018,-0.04 -0.04,-0.04 -0.022,0 -0.04,0.018 -0.04,0.04 0,0.022 0.018,0.04 0.04,0.04 0.022,0 0.04,-0.018 0.04,-0.04 z m -5.43642,-0.0799 c 0,-0.022 -0.018,-0.04 -0.04,-0.04 -0.022,0 -0.04,0.018 -0.04,0.04 0,0.022 0.018,0.04 0.04,0.04 0.022,0 0.04,-0.018 0.04,-0.04 z m -0.63958,-0.0799 c 0,-0.022 -0.018,-0.04 -0.04,-0.04 -0.022,0 -0.04,0.018 -0.04,0.04 0,0.022 0.018,0.04 0.04,0.04 0.022,0 0.04,-0.018 0.04,-0.04 z m 0.1599,0 c 0,-0.022 -0.018,-0.04 -0.04,-0.04 -0.022,0 -0.04,0.018 -0.04,0.04 0,0.022 0.018,0.04 0.04,0.04 0.022,0 0.04,-0.018 0.04,-0.04 z m 13.75094,-0.0799 c 0,-0.022 -0.018,-0.04 -0.04,-0.04 -0.022,0 -0.04,0.018 -0.04,0.04 0,0.022 0.018,0.04 0.04,0.04 0.022,0 0.04,-0.018 0.04,-0.04 z m -14.39052,-0.0799 c 0,-0.022 -0.018,-0.04 -0.04,-0.04 -0.022,0 -0.04,0.018 -0.04,0.04 0,0.022 0.018,0.04 0.04,0.04 0.022,0 0.04,-0.018 0.04,-0.04 z m 0.39973,-0.0799 c 0,-0.022 -0.018,-0.04 -0.04,-0.04 -0.022,0 -0.04,0.018 -0.04,0.04 0,0.022 0.018,0.04 0.04,0.04 0.022,0 0.04,-0.018 0.04,-0.04 z m 2.02919,-0.0841 c 0.0273,-0.0711 0.0139,-0.10324 -0.0314,-0.0752 -0.0435,0.0269 -0.079,0.0827 -0.079,0.12408 0,0.0414 0.0141,0.0752 0.0314,0.0752 0.0173,0 0.0528,-0.0558 0.079,-0.12407 z m 0.20934,0.0841 c 0,-0.022 -0.018,-0.04 -0.04,-0.04 -0.022,0 -0.04,0.018 -0.04,0.04 0,0.022 0.018,0.04 0.04,0.04 0.022,0 0.04,-0.018 0.04,-0.04 z m 11.43247,0 c 0,-0.022 -0.018,-0.04 -0.04,-0.04 -0.022,0 -0.04,0.018 -0.04,0.04 0,0.022 0.018,0.04 0.04,0.04 0.022,0 0.04,-0.018 0.04,-0.04 z m -0.79948,-0.47968 c 0,-0.022 -0.018,-0.04 -0.04,-0.04 -0.022,0 -0.04,0.018 -0.04,0.04 0,0.022 0.018,0.04 0.04,0.04 0.022,0 0.04,-0.018 0.04,-0.04 z m -7.91478,-0.1599 c 0,-0.022 -0.018,-0.04 -0.04,-0.04 -0.022,0 -0.04,0.018 -0.04,0.04 0,0.022 0.018,0.04 0.04,0.04 0.022,0 0.04,-0.018 0.04,-0.04 z m -0.1599,-0.0799 c 0,-0.022 -0.018,-0.04 -0.04,-0.04 -0.022,0 -0.04,0.018 -0.04,0.04 0,0.022 0.018,0.04 0.04,0.04 0.022,0 0.04,-0.018 0.04,-0.04 z m -0.26648,-0.25316 c -0.0293,-0.0293 -0.0533,-0.005 -0.0533,0.0533 0,0.0586 0.024,0.0826 0.0533,0.0533 0.0293,-0.0293 0.0293,-0.0773 0,-0.10659 z m -0.37309,-0.22652 c 0,-0.022 -0.018,-0.04 -0.04,-0.04 -0.022,0 -0.04,0.018 -0.04,0.04 0,0.022 0.018,0.04 0.04,0.04 0.022,0 0.04,-0.018 0.04,-0.04 z m 0.39973,-0.0799 c 0,-0.022 -0.018,-0.04 -0.04,-0.04 -0.022,0 -0.04,0.018 -0.04,0.04 0,0.022 0.018,0.04 0.04,0.04 0.022,0 0.04,-0.018 0.04,-0.04 z m -0.63958,-0.11992 c 0,-0.044 -0.0159,-0.0799 -0.0353,-0.0799 -0.0194,0 -0.0575,0.036 -0.0847,0.0799 -0.0272,0.044 -0.0113,0.0799 0.0353,0.0799 0.0466,0 0.0847,-0.036 0.0847,-0.0799 z m 0.1599,-0.04 c 0,-0.022 -0.018,-0.04 -0.04,-0.04 -0.022,0 -0.04,0.018 -0.04,0.04 0,0.022 0.018,0.04 0.04,0.04 0.022,0 0.04,-0.018 0.04,-0.04 z m 0.31979,-0.0799 c 0,-0.022 -0.018,-0.04 -0.04,-0.04 -0.022,0 -0.04,0.018 -0.04,0.04 0,0.022 0.018,0.04 0.04,0.04 0.022,0 0.04,-0.018 0.04,-0.04 z m -8.63432,-2.71821 c 0,-0.022 -0.018,-0.04 -0.04,-0.04 -0.022,0 -0.04,0.018 -0.04,0.04 0,0.022 0.018,0.04 0.04,0.04 0.022,0 0.04,-0.018 0.04,-0.04 z m 0.23985,0 c 0,-0.022 -0.018,-0.04 -0.04,-0.04 -0.022,0 -0.04,0.018 -0.04,0.04 0,0.022 0.018,0.04 0.04,0.04 0.022,0 0.04,-0.018 0.04,-0.04 z m -2.95805,-1.94538 c 0,-0.0366 -0.0524,-0.0666 -0.11641,-0.0666 -0.064,0 -0.0979,0.03 -0.0752,0.0666 0.0227,0.0366 0.075,0.0666 0.11641,0.0666 0.0414,0 0.0752,-0.03 0.0752,-0.0666 z m -1.11927,-0.41306 c 0,-0.044 -0.0381,-0.0799 -0.0847,-0.0799 -0.0466,0 -0.0624,0.036 -0.0353,0.0799 0.0272,0.044 0.0653,0.0799 0.0847,0.0799 0.0194,0 0.0353,-0.036 0.0353,-0.0799 z m 0.1599,-0.11993 c 0,-0.022 -0.018,-0.04 -0.04,-0.04 -0.022,0 -0.04,0.018 -0.04,0.04 0,0.022 0.018,0.04 0.04,0.04 0.022,0 0.04,-0.018 0.04,-0.04 z m 0.31979,0 c 0,-0.022 -0.018,-0.04 -0.04,-0.04 -0.022,0 -0.04,0.018 -0.04,0.04 0,0.022 0.018,0.04 0.04,0.04 0.022,0 0.04,-0.018 0.04,-0.04 z m -0.50634,-0.17321 c -0.0293,-0.0293 -0.0533,-0.005 -0.0533,0.0533 0,0.0586 0.024,0.0826 0.0533,0.0533 0.0293,-0.0293 0.0293,-0.0773 0,-0.10659 z M 97.371291,157.2151 c -0.62902,-0.0948 -0.62902,-0.0948 -0.90486,-0.85432 -0.15171,-0.41773 -0.43148,-1.29915 -0.62171,-1.95871 -0.19022,-0.65957 -0.43842,-1.61294 -0.55155,-2.11861 -0.11313,-0.50567 -0.26382,-1.29714 -0.33486,-1.75884 -0.071,-0.4617 -0.19788,-1.28915 -0.28188,-1.83879 -0.084,-0.54964 -0.15297,-1.05652 -0.15328,-1.1264 -6e-4,-0.11517 0.63242,-0.12639 6.766139,-0.11992 6.76669,0.007 6.76669,0.007 7.19884,0.59049 0.23769,0.32085 0.90723,1.063 1.48787,1.64923 0.58065,0.58622 1.52341,1.43626 2.09503,1.88896 0.57163,0.45271 1.28042,0.97934 1.57509,1.17029 0.29467,0.19096 0.55911,0.38495 0.58763,0.43109 0.0285,0.0461 -0.0147,0.13321 -0.0961,0.19348 -0.0814,0.0603 -0.72354,0.39674 -1.42707,0.7477 -0.70354,0.35097 -1.51301,0.73605 -1.79882,0.85574 -0.28581,0.1197 -1.02333,0.39438 -1.63892,0.6104 -0.61559,0.21602 -1.3711,0.46244 -1.67889,0.54758 -0.3078,0.0852 -0.94262,0.24484 -1.4107,0.35487 -0.46809,0.11001 -1.37429,0.29009 -2.01377,0.40015 -0.63948,0.11006 -1.38976,0.22122 -1.66727,0.24703 -0.27752,0.0258 -0.61251,0.0636 -0.74442,0.0839 -0.13191,0.0203 -1.03132,0.0511 -1.998689,0.0682 -1.11263,0.0198 -1.98994,-0.004 -2.38785,-0.0636 z m 15.225939,-3.1728 c 0.0404,0 0.0734,-0.03 0.0734,-0.0666 0,-0.0367 -0.0465,-0.0666 -0.10344,-0.0666 -0.0569,0 -0.15465,0.0548 -0.21724,0.12182 -0.0996,0.10659 -0.0958,0.11492 0.03,0.0666 0.0791,-0.0304 0.17686,-0.0552 0.21724,-0.0552 z m 0.2333,-0.19986 c 0,-0.022 -0.018,-0.04 -0.04,-0.04 -0.022,0 -0.04,0.018 -0.04,0.04 0,0.022 0.018,0.04 0.04,0.04 0.022,0 0.04,-0.018 0.04,-0.04 z m -18.844399,2.75414 c -0.36102,-0.0801 -1.15249,-0.31109 -1.75885,-0.5133 -0.61474,-0.20502 -1.71787,-0.67067 -2.49359,-1.0526 -0.78161,-0.38484 -1.83248,-0.9842 -2.39842,-1.36794 -0.55401,-0.37564 -1.27711,-0.90207 -1.60689,-1.16983 -0.32978,-0.26775 -0.90886,-0.79318 -1.28684,-1.1676 -0.37798,-0.37442 -0.97159,-1.04069 -1.31913,-1.4806 -0.34754,-0.43991 -0.89586,-1.18837 -1.21849,-1.66324 -0.32262,-0.47488 -0.61458,-0.85247 -0.64879,-0.83909 -0.0342,0.0134 -0.60613,0.54579 -1.27091,1.18313 -0.66478,0.63734 -1.24175,1.16983 -1.28215,1.18329 -0.0404,0.0135 -0.10003,-0.32811 -0.13249,-0.75907 -0.0325,-0.43095 -0.0358,-1.52107 -0.007,-2.42248 0.0284,-0.9014 0.0724,-1.80081 0.0977,-1.99868 0.0253,-0.19787 0.0951,-0.64757 0.15503,-0.99934 0.06,-0.35177 0.21702,-1.08928 0.349,-1.63892 0.13198,-0.54963 0.37032,-1.37709 0.52964,-1.83878 0.15933,-0.4617 0.32316,-0.87363 0.36408,-0.9154 0.0409,-0.0418 0.0744,-0.10759 0.0744,-0.14626 0,-0.0387 -0.11692,-0.0448 -0.25983,-0.0136 -0.1429,0.0312 -0.70953,0.19128 -1.25917,0.35571 -0.54963,0.16444 -1.11843,0.32499 -1.26398,0.35677 -0.26463,0.0578 -0.26463,0.0578 -0.21318,-0.44929 0.0283,-0.27889 0.13671,-1.06471 0.24091,-1.74626 0.10421,-0.68156 0.33418,-1.76386 0.51106,-2.40512 0.17688,-0.64127 0.45186,-1.54068 0.61107,-1.99869 0.15922,-0.45801 0.46496,-1.22641 0.67943,-1.70756 0.21447,-0.48114 0.37245,-0.89231 0.35106,-0.9137 -0.0214,-0.0214 -0.22733,0.0192 -0.45764,0.0903 -0.23031,0.071 -0.61662,0.16689 -0.85846,0.21302 -0.24184,0.0461 -0.72752,0.15158 -1.07929,0.23434 -0.35177,0.0828 -1.08168,0.29586 -1.62202,0.47356 -0.93929,0.3089 -0.98013,0.31551 -0.93004,0.15048 0.0288,-0.0949 0.21373,-0.58634 0.41094,-1.09201 0.1972,-0.50567 0.58756,-1.37965 0.86746,-1.94219 0.2799,-0.56253 0.71361,-1.372 0.9638,-1.79881 0.2502,-0.42682 0.59895,-0.99189 0.77501,-1.25571 0.17605,-0.26383 0.58935,-0.83945 0.91843,-1.27916 0.32908,-0.43971 0.62823,-0.8328 0.66479,-0.87353 0.0398,-0.0443 0.1234,-0.0231 0.20825,0.0529 0.078,0.0698 0.50896,0.31007 0.95772,0.53386 0.44876,0.22379 1.20427,0.5659 1.6789,0.76024 0.47463,0.19434 1.22273,0.47699 1.66244,0.62812 0.43971,0.15113 1.08728,0.3374 1.43905,0.41393 0.35177,0.0765 0.7257,0.15559 0.83096,0.17566 0.19137,0.0365 0.19137,0.0365 0.0143,0.16056 -0.0974,0.0682 -0.81312,0.43932 -1.59046,0.82463 -0.77734,0.38532 -1.67121,0.81319 -1.98637,0.95083 -0.31517,0.13764 -0.63296,0.25025 -0.7062,0.25025 -0.0732,0 -0.12032,0.0385 -0.10462,0.0857 0.0157,0.0471 0.32352,0.24182 0.68404,0.43268 0.36052,0.19085 1.31303,0.62529 2.1167,0.9654 0.80367,0.34011 1.79815,0.73929 2.20997,0.88706 0.41181,0.14778 1.22128,0.39083 1.79881,0.54013 0.57753,0.1493 1.49977,0.34633 2.0494,0.43785 0.54964,0.0915 1.39509,0.20291 1.87877,0.24753 0.48368,0.0446 1.44604,0.0812 2.13859,0.0812 0.76858,4e-5 1.25917,0.0306 1.25917,0.0784 0,0.0431 -0.1651,0.4478 -0.36689,0.89941 -0.20179,0.4516 -0.58129,1.36073 -0.84332,2.0203 -0.26204,0.65957 -0.5623,1.50501 -0.66725,1.87876 -0.10495,0.37376 -0.28146,1.07529 -0.39225,1.55898 -0.11079,0.48368 -0.2735,1.34711 -0.36159,1.91873 -0.0881,0.57163 -0.18126,1.27316 -0.20708,1.55896 -0.0258,0.28582 -0.0658,0.68156 -0.0889,0.87943 -0.023,0.19786 -0.0527,0.95337 -0.0658,1.67889 -0.0132,0.72552 0.005,1.75076 0.0403,2.2783 0.0353,0.52755 0.0871,1.15713 0.11492,1.39908 0.0279,0.24195 0.1026,0.81766 0.16608,1.27936 0.0635,0.46169 0.22601,1.39707 0.36115,2.07862 0.13515,0.68156 0.34835,1.63493 0.47377,2.11861 0.12543,0.48368 0.39629,1.40108 0.60191,2.03866 0.20562,0.63758 0.38984,1.18622 0.40936,1.21919 0.0195,0.033 -0.0296,0.0559 -0.10911,0.0508 -0.0795,-0.005 -0.44,-0.0747 -0.80101,-0.15479 z m -2.2617,-1.07525 c 0,-0.022 -0.018,-0.04 -0.04,-0.04 -0.022,0 -0.04,0.018 -0.04,0.04 0,0.022 0.018,0.04 0.04,0.04 0.022,0 0.04,-0.018 0.04,-0.04 z m -12.47178,-6.47573 c 0,-0.022 -0.018,-0.04 -0.04,-0.04 -0.022,0 -0.04,0.018 -0.04,0.04 0,0.022 0.018,0.04 0.04,0.04 0.022,0 0.04,-0.018 0.04,-0.04 z m 0,-0.19987 c 0,-0.044 -0.036,-0.0799 -0.0799,-0.0799 -0.044,0 -0.0799,0.036 -0.0799,0.0799 0,0.044 0.036,0.0799 0.0799,0.0799 0.044,0 0.0799,-0.036 0.0799,-0.0799 z m -0.0799,-0.19987 c 0,-0.022 -0.018,-0.04 -0.04,-0.04 -0.022,0 -0.04,0.018 -0.04,0.04 0,0.022 0.018,0.04 0.04,0.04 0.022,0 0.04,-0.018 0.04,-0.04 z m 21.473479,-2.81915 c -6.228279,-0.0205 -6.228279,-0.0205 -6.177739,-1.67889 0.0278,-0.91213 0.0663,-1.74836 0.0855,-1.85828 0.0192,-0.10993 0.0581,-0.45171 0.0864,-0.75951 0.0283,-0.30778 0.14079,-1.09899 0.25004,-1.75822 0.10925,-0.65923 0.2267,-1.22666 0.26098,-1.26094 0.0343,-0.0343 2.14356,-0.0525 4.68726,-0.0406 4.624929,0.0217 4.624929,0.0217 4.842279,1.18099 0.11954,0.63758 0.3131,1.50101 0.43013,1.91873 0.11703,0.41772 0.39401,1.2092 0.61552,1.75884 0.22152,0.54964 0.58311,1.33442 0.80354,1.74396 0.22044,0.40954 0.38811,0.75132 0.37259,0.7595 -0.0155,0.008 -2.83092,0.006 -6.25648,-0.006 z m -5.164229,-9.00582 c 0,-0.0177 0.12705,-0.40447 0.28233,-0.85944 0.15528,-0.45495 0.66573,-1.5953 1.13432,-2.5341 0.47219,-0.94599 0.92547,-1.75292 1.01682,-1.81013 0.0907,-0.0568 0.34471,-0.12765 0.56456,-0.1575 0.21986,-0.0299 0.84183,-0.16071 1.38215,-0.29081 0.540329,-0.1301 1.385769,-0.37598 1.878769,-0.54639 0.49299,-0.17042 1.38203,-0.51491 1.97564,-0.76554 0.5936,-0.25063 1.37663,-0.55909 1.74005,-0.68545 0.36342,-0.12637 0.98515,-0.27136 1.38163,-0.32221 0.39648,-0.0508 0.74276,-0.0706 0.76951,-0.0438 0.0267,0.0267 -0.0783,0.18911 -0.23337,0.3608 -0.1551,0.17169 -0.46562,0.58425 -0.69002,0.9168 -0.2244,0.33255 -0.5729,0.92155 -0.77445,1.30889 -0.20154,0.38734 -0.50695,1.12882 -0.67868,1.64773 -0.17174,0.51892 -0.40083,1.38235 -0.50909,1.91874 -0.10826,0.53639 -0.22308,1.15513 -0.25514,1.37499 -0.0321,0.21985 -0.0521,0.42672 -0.0446,0.45969 0.008,0.033 -2.00098,0.06 -4.463359,0.06 -2.46238,0 -4.47706,-0.0145 -4.47706,-0.0322 z m 9.673639,-4.165 c 0,-0.022 -0.018,-0.04 -0.04,-0.04 -0.022,0 -0.04,0.018 -0.04,0.04 0,0.022 0.018,0.04 0.04,0.04 0.022,0 0.04,-0.018 0.04,-0.04 z m 15.42983,0.56959 c 0,-0.0217 0.21008,-0.3566 0.46685,-0.74423 0.25676,-0.38763 0.56256,-0.948 0.67955,-1.24527 0.16385,-0.41634 0.21271,-0.67922 0.21271,-1.1445 0,-0.33221 -0.04,-0.67875 -0.0889,-0.77008 -0.0489,-0.0913 -0.191,-0.26589 -0.31583,-0.38791 -0.12483,-0.12203 -0.39371,-0.33659 -0.59752,-0.47681 -0.20381,-0.14023 -0.79021,-0.46268 -1.3031,-0.71656 -0.51291,-0.25388 -1.22036,-0.55388 -1.57213,-0.66666 -0.35177,-0.11278 -0.80147,-0.24748 -0.99934,-0.29934 -0.19787,-0.0519 -0.77349,-0.16045 -1.27916,-0.2413 -0.72511,-0.11594 -1.24883,-0.14124 -2.47836,-0.11974 -1.32158,0.0231 -1.88768,0.0766 -3.71755,0.3515 -1.18722,0.17832 -2.57231,0.36249 -3.07798,0.40927 -0.50566,0.0468 -1.29714,0.0845 -1.75884,0.0839 -0.46169,-6.1e-4 -1.20823,-0.0536 -1.65897,-0.1177 -0.45074,-0.0641 -1.09832,-0.20973 -1.43906,-0.32368 -0.34074,-0.11394 -0.86583,-0.33 -1.16687,-0.48012 -0.30105,-0.15012 -0.786729,-0.44195 -1.079289,-0.64852 -0.29257,-0.20657 -0.78773,-0.63314 -1.10037,-0.94792 -0.31264,-0.31479 -0.74837,-0.839 -0.9683,-1.16492 -0.21992,-0.32593 -0.53061,-0.85224 -0.69042,-1.16958 -0.15981,-0.31735 -0.38023,-0.84411 -0.48982,-1.17058 -0.1096,-0.32647 -0.25782,-0.98422 -0.32938,-1.46166 -0.0914,-0.60982 -0.11459,-1.09404 -0.078,-1.62758 0.0287,-0.41773 0.12124,-1.09056 0.20568,-1.49518 0.0844,-0.40463 0.28405,-1.0522 0.4436,-1.43905 0.15954,-0.38686 0.40155,-0.90125 0.5378,-1.14309 0.13625,-0.24184 0.43488,-0.69154 0.66361,-0.99934 0.22873,-0.3078 0.62686,-0.76216 0.88472,-1.0097 0.25787,-0.24754 0.73867,-0.64455 1.06845,-0.88224 0.32978,-0.23769 0.700009,-0.49564 0.822729,-0.57323 0.22312,-0.14108 0.22312,-0.14108 -0.23985,-0.67591 -0.254629,-0.29416 -0.498929,-0.57847 -0.542899,-0.63181 -0.044,-0.0533 -0.52966,-0.57582 -1.0793,-1.16109 -0.54963,-0.58528 -1.37709,-1.39732 -1.83879,-1.80455 -0.4617,-0.40723 -0.90527,-0.78613 -0.98571,-0.84199 -0.13615,-0.0945 -0.10076,-0.17326 0.51135,-1.13732 0.3617,-0.56965 0.88122,-1.40224 1.15451,-1.85019 0.27328,-0.44795 0.62082,-0.9876 0.7723,-1.19921 0.15149,-0.21162 0.35894,-0.53403 0.461,-0.71648 0.10207,-0.18245 0.26283,-0.37307 0.35726,-0.4236 0.12669,-0.0678 1.910149,-0.0839 6.805319,-0.0616 5.75797,0.0263 6.7026,0.0473 7.15614,0.15896 0.28737,0.0708 0.9282,0.27341 1.42406,0.45029 0.49586,0.17688 1.10617,0.43718 1.35626,0.57844 0.25008,0.14126 0.6827,0.41785 0.96138,0.61464 0.27868,0.19678 0.68063,0.52722 0.89323,0.7343 0.21261,0.20708 0.5208,0.58638 0.68488,0.84288 0.16408,0.2565 0.4155,0.72024 0.55869,1.03053 0.14321,0.31029 0.31754,0.84147 0.3874,1.18039 0.0699,0.33892 0.12703,0.93864 0.12703,1.33271 0,0.71649 0,0.71649 0.55543,0.84282 0.46657,0.10611 1.1997,0.12633 4.58221,0.12633 4.02678,0 4.02678,0 4.73824,-0.37229 0.39131,-0.20475 0.9286,-0.44101 1.19399,-0.52501 0.28776,-0.0911 0.83748,-0.17074 1.36195,-0.19736 0.6676,-0.0339 1.00458,-0.0132 1.39907,0.0857 0.28581,0.0717 0.82546,0.27943 1.19921,0.46165 0.52085,0.25393 0.81272,0.46595 1.24976,0.90782 0.37769,0.38187 0.65237,0.74899 0.81354,1.08735 0.13382,0.28096 0.31794,0.79643 0.40915,1.14548 0.0912,0.34906 0.16581,0.77783 0.16581,0.95282 0,0.175 -0.0411,0.55497 -0.0913,0.84438 -0.0502,0.28941 -0.28802,0.9939 -0.52846,1.56552 -0.24044,0.57162 -0.52733,1.21727 -0.63753,1.43477 -0.11019,0.2175 -0.31309,0.54888 -0.45088,0.7364 -0.25053,0.34094 -0.25053,0.34094 -0.89227,0.34406 -0.64176,0.003 -0.64176,0.003 -0.97134,0.66767 -0.18127,0.36551 -0.50315,0.86018 -0.71527,1.09928 -0.21213,0.23909 -0.5311,0.57862 -0.70882,0.75451 -0.17773,0.17588 -0.48817,0.45469 -0.68987,0.61959 -0.2017,0.16489 -0.38102,0.29979 -0.39848,0.29978 -0.0175,-2e-5 -0.033,-0.56664 -0.0346,-1.25917 -0.001,-0.70975 -0.0464,-1.44971 -0.10273,-1.69587 -0.055,-0.24021 -0.13118,-0.45606 -0.1694,-0.47969 -0.0382,-0.0236 -4.29368,-0.0337 -9.45656,-0.0223 -9.38707,0.0206 -9.38707,0.0206 -9.52074,0.43971 -0.0735,0.23049 -0.25088,0.64542 -0.39414,0.92208 -0.14326,0.27665 -0.45252,0.76233 -0.68724,1.07928 -0.23471,0.31696 -0.66643,0.76587 -0.95936,0.99756 -0.29294,0.2317 -0.83841,0.57918 -1.21217,0.77219 -0.37375,0.19301 -0.85199,0.37651 -1.06276,0.40779 -0.22889,0.034 -0.37113,0.0931 -0.3532,0.14692 0.0165,0.0495 0.17097,0.11474 0.34324,0.14493 0.17227,0.0302 0.74494,0.0447 1.27259,0.0324 0.8288,-0.0195 1.05186,-0.0554 1.63892,-0.26366 0.37376,-0.13262 0.85944,-0.34047 1.07929,-0.46189 0.21986,-0.12142 0.58904,-0.36483 0.82041,-0.5409 0.23137,-0.17608 0.48406,-0.40717 0.56155,-0.51354 0.14088,-0.19339 0.14088,-0.19339 0.73856,0.0573 0.32873,0.1379 0.75958,0.31474 0.95745,0.39299 0.19787,0.0783 0.80947,0.33132 1.35911,0.56238 0.54964,0.23107 1.17922,0.49096 1.39908,0.57754 0.21985,0.0866 0.54364,0.22267 0.71952,0.3024 0.17589,0.0797 1.11127,0.47676 2.07863,0.88229 0.96737,0.40553 1.92154,0.80149 2.12039,0.87992 0.19885,0.0784 0.55862,0.23163 0.79948,0.34046 0.24085,0.10882 0.68976,0.3059 0.99755,0.43795 0.3078,0.13205 0.89405,0.37252 1.30276,0.53438 0.74314,0.29429 0.74314,0.29429 1.08643,0.0931 0.18881,-0.11065 0.5522,-0.40992 0.80753,-0.66504 0.25533,-0.25513 0.63438,-0.70597 0.84235,-1.00189 0.20797,-0.29591 0.45858,-0.73625 0.55691,-0.97854 0.0983,-0.24228 0.20552,-0.424 0.23818,-0.40381 0.0327,0.0202 0.13838,0.25332 0.2349,0.51808 0.0965,0.26475 0.22705,0.72455 0.29005,1.02178 0.063,0.29723 0.11514,0.80608 0.11589,1.13078 0.001,0.59038 0.001,0.59038 1.16964,0.55126 1.16826,-0.0391 1.16826,-0.0391 1.11433,0.44894 -0.0296,0.26843 -0.10958,0.73546 -0.17762,1.03784 -0.068,0.30238 -0.22685,0.79994 -0.35294,1.1057 -0.12608,0.30576 -0.36398,0.77789 -0.52865,1.04917 -0.16467,0.27129 -0.58621,0.79213 -0.93674,1.15744 -0.35053,0.3653 -0.86866,0.8259 -1.15141,1.02355 -0.28275,0.19766 -0.8604,0.53278 -1.28369,0.74472 -0.42328,0.21194 -1.02143,0.47555 -1.32923,0.58579 -0.3078,0.11024 -1.13525,0.34689 -1.83879,0.5259 -0.70354,0.17901 -1.72652,0.40117 -2.2733,0.49369 -0.54677,0.0925 -1.02346,0.18635 -1.0593,0.2085 -0.0358,0.0221 -0.0652,0.0225 -0.0652,9.1e-4 z m -21.026149,-7.60496 c 0,-0.022 -0.018,-0.04 -0.04,-0.04 -0.022,0 -0.04,0.018 -0.04,0.04 0,0.022 0.018,0.04 0.04,0.04 0.022,0 0.04,-0.018 0.04,-0.04 z m -0.63957,-0.79947 c 0,-0.022 -0.018,-0.04 -0.04,-0.04 -0.022,0 -0.04,0.018 -0.04,0.04 0,0.022 0.018,0.04 0.04,0.04 0.022,0 0.04,-0.018 0.04,-0.04 z m 29.260719,-1.75884 c 0,-0.022 -0.018,-0.04 -0.04,-0.04 -0.022,0 -0.04,0.018 -0.04,0.04 0,0.022 0.018,0.04 0.04,0.04 0.022,0 0.04,-0.018 0.04,-0.04 z m -20.78631,-1.43905 c 0,-0.022 -0.018,-0.04 -0.04,-0.04 -0.022,0 -0.04,0.018 -0.04,0.04 0,0.022 0.018,0.04 0.04,0.04 0.022,0 0.04,-0.018 0.04,-0.04 z m 0.39974,-0.9194 c 0,-0.044 -0.0159,-0.0799 -0.0353,-0.0799 -0.0194,0 -0.0575,0.036 -0.0847,0.0799 -0.0272,0.044 -0.0113,0.0799 0.0353,0.0799 0.0466,0 0.0847,-0.036 0.0847,-0.0799 z m 1.11926,-0.67955 c 0,-0.022 -0.018,-0.04 -0.04,-0.04 -0.022,0 -0.04,0.018 -0.04,0.04 0,0.022 0.018,0.04 0.04,0.04 0.022,0 0.04,-0.018 0.04,-0.04 z m 0.1599,-0.0799 c 0,-0.022 -0.018,-0.04 -0.04,-0.04 -0.022,0 -0.04,0.018 -0.04,0.04 0,0.022 0.018,0.04 0.04,0.04 0.022,0 0.04,-0.018 0.04,-0.04 z m 0.31979,-0.15989 c 0,-0.022 -0.018,-0.04 -0.04,-0.04 -0.022,0 -0.04,0.018 -0.04,0.04 0,0.022 0.018,0.04 0.04,0.04 0.022,0 0.04,-0.018 0.04,-0.04 z M 97.160901,114.1881 c 0,-0.022 -0.018,-0.04 -0.04,-0.04 -0.022,0 -0.04,0.018 -0.04,0.04 0,0.022 0.018,0.04 0.04,0.04 0.022,0 0.04,-0.018 0.04,-0.04 z m 17.431889,-5.06304 c 0.33164,-0.14 0.80862,-0.38317 1.05996,-0.54038 0.25134,-0.15722 0.43658,-0.31887 0.41164,-0.35923 -0.0249,-0.0403 -0.10392,-0.0734 -0.17551,-0.0734 -0.0716,0 -0.86209,-0.49467 -1.75668,-1.09928 -0.8946,-0.6046 -1.80671,-1.20127 -2.02693,-1.32592 -0.40039,-0.22666 -0.40039,-0.22666 -3.11511,-0.25177 -1.59356,-0.0147 -2.69638,0.005 -2.6703,0.0468 0.0245,0.0395 0.0814,0.0719 0.12648,0.0719 0.0451,0 0.86971,0.32799 1.83241,0.72886 1.75036,0.72887 1.75036,0.72887 2.02525,1.2192 0.15119,0.26968 0.38551,0.64253 0.5207,0.82856 0.1352,0.18603 0.3923,0.43518 0.57135,0.55367 0.17905,0.11849 0.51211,0.28196 0.74013,0.36326 0.31767,0.11326 0.58279,0.14132 1.13411,0.12005 0.58954,-0.0228 0.82847,-0.0738 1.3225,-0.28231 z m 21.58241,0.18626 c 0,-0.022 -0.018,-0.04 -0.04,-0.04 -0.022,0 -0.04,0.018 -0.04,0.04 0,0.022 0.018,0.04 0.04,0.04 0.022,0 0.04,-0.018 0.04,-0.04 z m -36.775769,-0.63958 c 0,-0.022 -0.018,-0.04 -0.04,-0.04 -0.022,0 -0.04,0.018 -0.04,0.04 0,0.022 0.018,0.04 0.04,0.04 0.022,0 0.04,-0.018 0.04,-0.04 z M 114.10974,106.753 c 0,-0.022 -0.018,-0.04 -0.04,-0.04 -0.022,0 -0.04,0.018 -0.04,0.04 0,0.022 0.018,0.04 0.04,0.04 0.022,0 0.04,-0.018 0.04,-0.04 z m -1.75884,-1.11454 c 0,-0.0194 -0.0415,-0.0609 -0.0923,-0.0923 -0.0572,-0.0354 -0.0706,-0.0219 -0.0353,0.0352 0.0314,0.0508 0.0729,0.0923 0.0923,0.0923 0.0194,0 0.0353,-0.0159 0.0353,-0.0352 z m 0.15989,-0.005 c 0,-0.022 -0.018,-0.04 -0.04,-0.04 -0.022,0 -0.04,0.018 -0.04,0.04 0,0.022 0.018,0.04 0.04,0.04 0.022,0 0.04,-0.018 0.04,-0.04 z M 95.855091,105.2204 c -0.0293,-0.0293 -0.0533,-0.005 -0.0533,0.0533 0,0.0586 0.024,0.0826 0.0533,0.0533 0.0293,-0.0293 0.0293,-0.0773 0,-0.10659 z m 0.90608,-1.10594 c 0,-0.022 -0.018,-0.04 -0.04,-0.04 -0.022,0 -0.04,0.018 -0.04,0.04 0,0.022 0.018,0.04 0.04,0.04 0.022,0 0.04,-0.018 0.04,-0.04 z m 0.71952,-1.03932 c 0,-0.022 -0.018,-0.04 -0.04,-0.04 -0.022,0 -0.04,0.018 -0.04,0.04 0,0.022 0.018,0.04 0.04,0.04 0.022,0 0.04,-0.018 0.04,-0.04 z m -0.08,-0.15989 c 0,-0.022 -0.018,-0.04 -0.04,-0.04 -0.022,0 -0.04,0.018 -0.04,0.04 0,0.022 0.018,0.04 0.04,0.04 0.022,0 0.04,-0.018 0.04,-0.04 z m 19.986839,-0.23512 c 0,-0.0194 -0.0415,-0.0609 -0.0923,-0.0923 -0.0572,-0.0353 -0.0706,-0.0219 -0.0353,0.0352 0.0314,0.0508 0.0729,0.0923 0.0923,0.0923 0.0194,0 0.0353,-0.0159 0.0353,-0.0353 z m -0.31979,-0.0847 c 0,-0.022 -0.018,-0.04 -0.04,-0.04 -0.022,0 -0.04,0.018 -0.04,0.04 0,0.022 0.018,0.04 0.04,0.04 0.022,0 0.04,-0.018 0.04,-0.04 z m -24.943579,27.42011 c -0.50566,-0.0637 -1.31513,-0.18997 -1.79881,-0.28059 -0.48368,-0.0906 -1.21821,-0.25376 -1.63228,-0.36255 -0.41406,-0.10878 -1.09762,-0.32486 -1.51899,-0.48018 -0.42138,-0.15531 -0.99168,-0.37611 -1.26732,-0.49066 -0.50117,-0.20827 -0.50117,-0.20827 0.0799,-0.46159 0.31962,-0.13932 0.83319,-0.37779 1.14128,-0.52993 0.30809,-0.15214 1.46833,-0.79352 2.57831,-1.42529 1.10997,-0.63177 2.01813,-1.17792 2.01813,-1.21367 0,-0.0357 -0.65656,-0.0678 -1.45904,-0.0713 -0.80247,-0.003 -1.54898,-0.0188 -1.6589,-0.034 -0.10993,-0.0153 -0.39774,-0.0516 -0.63958,-0.0808 -0.24184,-0.0292 -0.7635,-0.10732 -1.15924,-0.17366 -0.39574,-0.0663 -1.04331,-0.21019 -1.43905,-0.31967 -0.39574,-0.10948 -1.14912,-0.34411 -1.67417,-0.5214 -0.52506,-0.17729 -1.28056,-0.46849 -1.6789,-0.64713 -0.39833,-0.17864 -1.04803,-0.50641 -1.44377,-0.72839 -0.39574,-0.22197 -1.11527,-0.66073 -1.59895,-0.97501 -0.48368,-0.31428 -1.27516,-0.88763 -1.75884,-1.27411 -0.48368,-0.38648 -0.99634,-0.81284 -1.13925,-0.94748 -0.1429,-0.13463 -0.25983,-0.26948 -0.25983,-0.29966 0,-0.0302 3.05798,-0.0501 6.7955,-0.0443 3.73752,0.006 6.79551,6.1e-4 6.79552,-0.0114 2e-5,-0.0121 -0.0815,-0.053 -0.18106,-0.0908 -0.0996,-0.0379 -0.36043,-0.093 -0.57962,-0.12243 -0.21919,-0.0295 -0.81226,-0.14214 -1.31792,-0.25036 -0.50567,-0.10822 -1.22519,-0.27055 -1.59895,-0.36073 -0.37375,-0.0902 -1.09328,-0.29052 -1.59894,-0.44518 -0.50567,-0.15467 -1.27916,-0.40787 -1.71887,-0.56266 -0.43971,-0.1548 -0.9074,-0.32885 -1.03932,-0.38678 -0.13191,-0.0579 -0.50966,-0.22075 -0.83944,-0.36182 -0.32979,-0.14108 -1.01941,-0.46642 -1.53249,-0.72299 -0.51309,-0.25657 -1.39451,-0.74252 -1.95871,-1.07988 -0.56421,-0.33736 -1.12252,-0.68932 -1.2407,-0.78213 -0.11818,-0.0928 -0.388,-0.29428 -0.5996,-0.44773 -0.21161,-0.15344 -0.66605,-0.50536 -1.00987,-0.78204 -0.62513,-0.50306 -0.62513,-0.50306 7.12867,-0.48051 4.26459,0.0124 7.74303,0.0118 7.72988,-10e-4 -0.0131,-0.0131 -0.45624,-0.1116 -0.98463,-0.21881 -0.5284,-0.10722 -1.38099,-0.32232 -1.89466,-0.47802 -0.51366,-0.1557 -1.322,-0.43907 -1.7963,-0.62972 -0.4743,-0.19065 -1.2015,-0.54623 -1.61599,-0.79017 -0.41449,-0.24394 -1.04763,-0.66153 -1.40697,-0.92796 -0.35935,-0.26656 -0.92621,-0.74373 -1.25969,-1.06051 -0.33348,-0.31677 -0.90132,-0.94391 -1.26186,-1.39363 -0.37961,-0.4735 -0.84653,-1.1827 -1.1093,-1.68489 -0.24957,-0.47696 -0.56595,-1.15095 -0.70306,-1.49775 -0.13711,-0.3468 -0.33859,-0.94041 -0.44773,-1.31913 -0.10914,-0.37872 -0.21897,-0.75489 -0.24406,-0.83593 -0.0302,-0.0975 0.12617,-0.0123 0.46178,0.25139 0.27908,0.2193 0.79634,0.57791 1.14947,0.79692 0.35314,0.219 0.8568,0.50621 1.11927,0.63825 0.26246,0.13203 0.71105,0.33243 0.99686,0.44533 0.28581,0.1129 0.79296,0.29622 1.127,0.40738 0.33404,0.11115 0.92381,0.27588 1.31059,0.36607 0.38678,0.0902 0.94093,0.19984 1.23144,0.24367 0.29051,0.0438 1.37365,0.11381 2.40697,0.1555 1.15182,0.0465 2.24996,0.13761 2.83813,0.23556 0.52765,0.0879 1.24718,0.24702 1.59895,0.35366 0.35177,0.10664 0.87342,0.28269 1.15923,0.39123 0.28581,0.10854 0.77797,0.32743 1.09369,0.48643 0.31571,0.159 0.89133,0.49274 1.27916,0.74165 0.38782,0.2489 0.99294,0.69392 1.3447,0.98892 0.35177,0.295 0.9118,0.80269 1.24451,1.12821 0.33271,0.32552 0.79569,0.81543 1.02885,1.08868 0.42391,0.49683 0.42391,0.49683 0.15457,0.7158 -0.14814,0.12044 -0.54976,0.50846 -0.89248,0.86228 -0.34272,0.35382 -0.85802,0.99551 -1.1451,1.42599 -0.28709,0.43047 -0.62917,1.04207 -0.76019,1.3591 -0.13102,0.31703 -0.36262,1.00378 -0.51468,1.52611 -0.15205,0.52233 -0.31654,1.20588 -0.36552,1.519 -0.054,0.34532 -0.0714,1.05687 -0.0443,1.8085 0.0305,0.8424 0.0964,1.44693 0.20608,1.888 0.0887,0.35684 0.27117,0.96598 0.40549,1.35364 0.13432,0.38765 0.41038,1.01214 0.61347,1.38775 0.20309,0.3756 0.5579,0.93569 0.78848,1.24464 0.23058,0.30895 0.75669,0.8885 1.16914,1.2879 0.41245,0.39939 0.96576,0.87126 1.22959,1.04862 0.26383,0.17734 0.85744,0.5132 1.31913,0.74635 0.461699,0.23314 1.145249,0.52195 1.518999,0.6418 0.67955,0.2179 0.67955,0.2179 0.22779,0.42172 -0.24847,0.11209 -0.68019,0.2791 -0.95937,0.37114 -0.27918,0.092 -0.948999,0.25701 -1.488489,0.3666 -0.53949,0.1096 -1.36694,0.2534 -1.83879,0.31956 -0.47184,0.0662 -1.63139,0.13573 -2.57677,0.15461 -1.21158,0.0242 -1.99021,1.6e-4 -2.63826,-0.0815 z m 5.24989,-3.60913 c -0.0293,-0.0293 -0.0773,-0.0293 -0.1066,0 -0.0293,0.0293 -0.005,0.0533 0.0533,0.0533 0.0586,0 0.0826,-0.024 0.0533,-0.0533 z m -6.60899,-0.78615 c 0,-0.022 -0.018,-0.04 -0.04,-0.04 -0.022,0 -0.04,0.018 -0.04,0.04 0,0.022 0.018,0.04 0.04,0.04 0.022,0 0.04,-0.018 0.04,-0.04 z m 4.47705,-12.47178 c 0,-0.022 -0.018,-0.04 -0.04,-0.04 -0.022,0 -0.04,0.018 -0.04,0.04 0,0.022 0.018,0.04 0.04,0.04 0.022,0 0.04,-0.018 0.04,-0.04 z m 0,-0.1599 c 0,-0.022 -0.018,-0.04 -0.04,-0.04 -0.022,0 -0.04,0.018 -0.04,0.04 0,0.022 0.018,0.04 0.04,0.04 0.022,0 0.04,-0.018 0.04,-0.04 z m -9.67363,-2.39842 c 0,-0.022 -0.018,-0.04 -0.04,-0.04 -0.022,0 -0.04,0.018 -0.04,0.04 0,0.022 0.018,0.04 0.04,0.04 0.022,0 0.04,-0.018 0.04,-0.04 z m -0.15989,-0.0799 c 0,-0.022 -0.018,-0.04 -0.04,-0.04 -0.022,0 -0.04,0.018 -0.04,0.04 0,0.022 0.018,0.04 0.04,0.04 0.022,0 0.04,-0.018 0.04,-0.04 z m 0.29814,-0.0883 c -0.0266,-0.0266 -0.0955,-0.0294 -0.15324,-0.006 -0.0638,0.0255 -0.0448,0.0445 0.0483,0.0483 0.0843,0.003 0.1315,-0.0154 0.10493,-0.042 z m 12.0937,-0.47135 c 0,-0.022 -0.018,-0.04 -0.04,-0.04 -0.022,0 -0.04,0.018 -0.04,0.04 0,0.022 0.018,0.04 0.04,0.04 0.022,0 0.04,-0.018 0.04,-0.04 z M 83.409911,109.711 c 0,-0.022 -0.018,-0.04 -0.04,-0.04 -0.022,0 -0.04,0.018 -0.04,0.04 0,0.022 0.018,0.04 0.04,0.04 0.022,0 0.04,-0.018 0.04,-0.04 z m -3.78418,-2.89143 c -0.0293,-0.0293 -0.0533,-0.005 -0.0533,0.0533 0,0.0586 0.024,0.0826 0.0533,0.0533 0.0293,-0.0293 0.0293,-0.0773 0,-0.1066 z m -0.85277,-1.02599 c 0,-0.022 -0.018,-0.04 -0.04,-0.04 -0.022,0 -0.04,0.018 -0.04,0.04 0,0.022 0.018,0.04 0.04,0.04 0.022,0 0.04,-0.018 0.04,-0.04 z m -1.91874,-4.31715 c 0,-0.022 -0.018,-0.04 -0.04,-0.04 -0.022,0 -0.04,0.018 -0.04,0.04 0,0.022 0.018,0.04 0.04,0.04 0.022,0 0.04,-0.018 0.04,-0.04 z m -4.31715,7.16663 c -1.20921,-0.82167 -2.43748,-1.65849 -2.72951,-1.85959 -0.53095,-0.36565 -0.53095,-0.36565 -3.157919,-0.45904 -1.444831,-0.0514 -2.968804,-0.10699 -3.386607,-0.1236 -0.548932,-0.0218 -0.937008,-0.0896 -1.399078,-0.24445 -0.35169,-0.11783 -0.855294,-0.33168 -1.119121,-0.47521 -0.263826,-0.14354 -1.253174,-0.72178 -2.198552,-1.28499 -0.945377,-0.56321 -2.006678,-1.19437 -2.358446,-1.40259 -0.351768,-0.20822 -1.475876,-0.87757 -2.498017,-1.48745 -1.022141,-0.60988 -2.712064,-1.612545 -3.755384,-2.228135 -1.04332,-0.6156 -2.725364,-1.61518 -3.737875,-2.2213 -1.374114,-0.82258 -1.955384,-1.21876 -2.29229,-1.56237 -0.280055,-0.28563 -0.487521,-0.58042 -0.546639,-0.77673 -0.0524,-0.17402 -0.11448,-0.59069 -0.137949,-0.92595 -0.03468,-0.4954 -0.01019,-0.70341 0.130736,-1.11064 0.09537,-0.27559 0.227467,-0.60561 0.29354,-0.73338 0.06607,-0.12778 0.662927,-1.04905 1.326339,-2.04729 0.663414,-0.99823 1.654804,-2.48922 2.203091,-3.31331 0.651602,-0.97937 1.156574,-1.64618 1.457935,-1.92519 0.253579,-0.23477 0.636467,-0.50955 0.850863,-0.61063 0.214395,-0.10108 0.605668,-0.20113 0.869495,-0.22232 0.263826,-0.0212 0.623589,4.8e-4 0.799473,0.0482 0.175884,0.0477 0.560911,0.24062 0.855616,0.42864 0.294705,0.18803 0.83435,0.55598 1.19921,0.81766 0.364861,0.26169 0.681371,0.49576 0.703357,0.52017 0.02198,0.0244 0.201867,0.16107 0.399737,0.30369 0.197869,0.14262 0.593609,0.43226 0.87942,0.64363 0.285812,0.21137 0.696232,0.50818 0.912045,0.65957 0.215813,0.15139 0.683505,0.48139 1.039316,0.73334 0.35581,0.25194 0.952726,0.67335 1.32648,0.93646 0.373754,0.26311 1.49346,1.06431 2.488235,1.78044 0.994775,0.71614 1.912171,1.38272 2.038657,1.48128 0.126486,0.0986 0.544124,0.39985 0.928083,0.66952 0.38396,0.26966 0.675206,0.52736 0.647213,0.57265 -0.0281,0.0455 -0.01219,0.0584 0.03552,0.0289 0.04753,-0.0294 0.427148,0.18992 0.843594,0.48732 0.416445,0.2974 1.105852,0.80614 1.532015,1.13054 0.484117,0.36851 0.953687,0.81486 1.251487,1.18961 0.26215,0.32989 0.58468,0.81383 0.71673,1.07542 0.13205,0.26158 0.34471,0.75935 0.47257,1.10614 0.12787,0.34679 0.30195,0.7667 0.38686,0.93313 0.0849,0.16643 0.51629,1.195425 0.95862,2.286645 0.44233,1.09122 0.77896,1.97231 0.74805,1.95798 -0.0309,-0.0143 -0.31423,-0.15971 -0.6296,-0.32307 -0.31538,-0.16336 -0.69313,-0.36499 -0.83945,-0.44807 -0.14632,-0.0831 -0.85573,-0.50182 -1.57646,-0.93056 -0.72074,-0.42874 -1.871981,-1.08628 -2.55832,-1.4612 -0.686339,-0.374925 -1.751557,-0.958125 -2.367152,-1.295995 -0.615594,-0.33787 -1.497014,-0.82347 -1.95871,-1.07912 -0.461696,-0.25565 -1.271162,-0.70694 -1.798815,-1.00287 -0.527652,-0.29593 -1.534989,-0.82772 -2.238525,-1.18175 -0.703537,-0.35404 -1.495015,-0.75408 -1.758842,-0.88898 -0.263826,-0.13491 -0.533648,-0.2446 -0.599605,-0.24376 -0.07371,9.4e-4 -0.03029,0.0699 0.112673,0.17887 0.127926,0.0975 0.7755,0.54917 1.439053,1.00363 0.663551,0.45446 1.943972,1.31449 2.845378,1.91119 0.901406,0.5967 2.045142,1.35812 2.541633,1.69206 0.496492,0.33393 0.964824,0.64312 1.040738,0.687105 0.07591,0.044 0.8749,0.56903 1.775524,1.16681 0.900623,0.59778 2.91466,1.93593 4.47563,2.97367 1.56097,1.03774 3.57629,2.38344 4.47849,2.99045 0.9022,0.607 1.8464,1.22956 2.09822,1.38346 0.25182,0.1539 0.86011,0.55897 1.35175,0.90016 0.49164,0.34118 0.91272,0.63916 0.93573,0.66217 0.023,0.023 -0.76582,0.0376 -1.75293,0.0324 -1.79476,-0.009 -1.79476,-0.009 -3.99332,-1.5034 z m 3.27784,0.10858 c 0,-0.022 -0.018,-0.04 -0.04,-0.04 -0.022,0 -0.04,0.018 -0.04,0.04 0,0.022 0.018,0.04 0.04,0.04 0.022,0 0.04,-0.018 0.04,-0.04 z m -16.708995,-4.557 c 0,-0.022 -0.01799,-0.04 -0.03997,-0.04 -0.02198,0 -0.03997,0.018 -0.03997,0.04 0,0.022 0.01799,0.04 0.03997,0.04 0.02199,0 0.03997,-0.018 0.03997,-0.04 z m 9.513735,-0.0799 c 0,-0.022 -0.018,-0.04 -0.04,-0.04 -0.022,0 -0.04,0.018 -0.04,0.04 0,0.022 0.018,0.04 0.04,0.04 0.022,0 0.04,-0.018 0.04,-0.04 z m 0.15989,-0.1599 c 0,-0.022 -0.018,-0.04 -0.04,-0.04 -0.022,0 -0.04,0.018 -0.04,0.04 0,0.022 0.018,0.04 0.04,0.04 0.022,0 0.04,-0.018 0.04,-0.04 z m 2.55832,-0.79947 c 0,-0.022 -0.018,-0.04 -0.04,-0.04 -0.022,0 -0.04,0.018 -0.04,0.04 0,0.022 0.018,0.04 0.04,0.04 0.022,0 0.04,-0.018 0.04,-0.04 z m -0.2922,-0.24329 c -0.026,-0.0678 -0.0645,-0.10622 -0.0854,-0.0853 -0.021,0.021 -0.0144,0.0765 0.0146,0.12337 0.029,0.0469 0.0674,0.0853 0.0854,0.0853 0.018,0 0.0114,-0.0555 -0.0146,-0.12337 z m -0.0276,-0.31634 c 0,-0.022 -0.018,-0.04 -0.04,-0.04 -0.022,0 -0.04,0.018 -0.04,0.04 0,0.022 0.018,0.04 0.04,0.04 0.022,0 0.04,-0.018 0.04,-0.04 z m -0.18655,-0.17322 c -0.0293,-0.0293 -0.0533,-0.005 -0.0533,0.0533 0,0.0586 0.024,0.0826 0.0533,0.0533 0.0293,-0.0293 0.0293,-0.0773 0,-0.1066 z M 55.58822,102.03606 c 0,-0.022 -0.01799,-0.04 -0.03997,-0.04 -0.02199,0 -0.03997,0.018 -0.03997,0.04 0,0.022 0.01799,0.04 0.03997,0.04 0.02199,0 0.03997,-0.018 0.03997,-0.04 z m 8.634313,-1.03932 c 0,-0.022 -0.01799,-0.04 -0.03997,-0.04 -0.02199,0 -0.03997,0.018 -0.03997,0.04 0,0.022 0.01799,0.04 0.03997,0.04 0.02199,0 0.03997,-0.018 0.03997,-0.04 z m 2.941216,-0.31172 c -0.0567,-0.0615 -0.115682,-0.0999 -0.131079,-0.0853 -0.01539,0.0146 -0.0043,0.065 0.02471,0.11186 0.02898,0.0469 0.08797,0.0853 0.131079,0.0853 0.04311,0 0.03199,-0.0503 -0.0247,-0.11185 z m -14.773423,-0.48775 c 0,-0.022 -0.01799,-0.04 -0.03997,-0.04 -0.02199,0 -0.03997,0.018 -0.03997,0.04 0,0.022 0.01799,0.04 0.03997,0.04 0.02199,0 0.03997,-0.018 0.03997,-0.04 z m -0.959368,-0.639585 c 0,-0.022 -0.01799,-0.04 -0.03997,-0.04 -0.02199,0 -0.03997,0.018 -0.03997,0.04 0,0.022 0.01799,0.04 0.03997,0.04 0.02199,0 0.03997,-0.018 0.03997,-0.04 z m 9.433786,-0.87942 c 0,-0.022 -0.01799,-0.04 -0.03997,-0.04 -0.02199,0 -0.03997,0.018 -0.03997,0.04 0,0.022 0.01799,0.04 0.03997,0.04 0.02199,0 0.03997,-0.018 0.03997,-0.04 z m -0.319789,-0.15989 c 0,-0.022 -0.01799,-0.04 -0.03997,-0.04 -0.02198,0 -0.03997,0.018 -0.03997,0.04 0,0.022 0.01799,0.04 0.03997,0.04 0.02199,0 0.03997,-0.018 0.03997,-0.04 z m -0.346438,-0.17322 c -0.02932,-0.0293 -0.0533,-0.005 -0.0533,0.0533 0,0.0586 0.02398,0.0826 0.0533,0.0533 0.02931,-0.0293 0.02931,-0.0773 0,-0.10659 z m -0.159895,-0.0799 c -0.02931,-0.0293 -0.0533,-0.005 -0.0533,0.0533 0,0.0586 0.02398,0.0826 0.0533,0.0533 0.02931,-0.0293 0.02931,-0.0773 0,-0.1066 z m 2.584964,-0.0666 c 0,-0.022 -0.01799,-0.04 -0.03997,-0.04 -0.02199,0 -0.03997,0.018 -0.03997,0.04 0,0.022 0.01799,0.04 0.03997,0.04 0.02199,0 0.03997,-0.018 0.03997,-0.04 z m -0.186544,-0.17322 c -0.02932,-0.0293 -0.0533,-0.005 -0.0533,0.0533 0,0.0586 0.02398,0.0826 0.0533,0.0533 0.02931,-0.0293 0.02931,-0.0773 0,-0.10659 z m -0.373088,-0.22652 c 0,-0.022 -0.01799,-0.04 -0.03997,-0.04 -0.02199,0 -0.03997,0.018 -0.03997,0.04 0,0.022 0.01799,0.04 0.03997,0.04 0.02199,0 0.03997,-0.018 0.03997,-0.04 z m -4.556998,-2.31847 c 0,-0.022 -0.01799,-0.04 -0.03997,-0.04 -0.02199,0 -0.03997,0.018 -0.03997,0.04 0,0.022 0.01799,0.04 0.03997,0.04 0.02199,0 0.03997,-0.018 0.03997,-0.04 z m 0.159895,0 c 0,-0.022 -0.01799,-0.04 -0.03997,-0.04 -0.02198,0 -0.03997,0.018 -0.03997,0.04 0,0.022 0.01799,0.04 0.03997,0.04 0.02199,0 0.03997,-0.018 0.03997,-0.04 z m -13.590992,-0.23985 c 0,-0.022 -0.01799,-0.04 -0.03997,-0.04 -0.02199,0 -0.03997,0.018 -0.03997,0.04 0,0.022 0.01799,0.04 0.03997,0.04 0.02199,0 0.03997,-0.018 0.03997,-0.04 z m 0.239842,0 c 0,-0.022 -0.01799,-0.04 -0.03997,-0.04 -0.02199,0 -0.03997,0.018 -0.03997,0.04 0,0.022 0.01799,0.04 0.03997,0.04 0.02199,0 0.03997,-0.018 0.03997,-0.04 z m 22.465202,-0.39973 c 0,-0.022 -0.01799,-0.04 -0.03997,-0.04 -0.02199,0 -0.03997,0.018 -0.03997,0.04 0,0.022 0.01799,0.04 0.03997,0.04 0.02199,0 0.03997,-0.018 0.03997,-0.04 z m -11.032772,-0.23991 c 0,-0.022 -0.01799,-0.04 -0.03997,-0.04 -0.02199,0 -0.03997,0.018 -0.03997,0.04 0,0.022 0.01799,0.04 0.03997,0.04 0.02199,0 0.03997,-0.018 0.03997,-0.04 z m -11.592364,-2.63827 c 0,-0.022 -0.01799,-0.04 -0.03997,-0.04 -0.02199,0 -0.03997,0.018 -0.03997,0.04 0,0.022 0.01799,0.04 0.03997,0.04 0.02198,0 0.03997,-0.018 0.03997,-0.04 z m 17.801607,-0.49301 c -0.02931,-0.0293 -0.07728,-0.0293 -0.106597,0 -0.02931,0.0293 -0.0053,0.0533 0.0533,0.0533 0.05863,0 0.08261,-0.024 0.0533,-0.0533 z m -17.10873,-1.11926 c -0.02931,-0.0293 -0.0533,-0.005 -0.0533,0.0533 0,0.0586 0.02398,0.0826 0.0533,0.0533 0.02931,-0.0293 0.02931,-0.0773 0,-0.1066 z m 2.744858,-3.98404 c 0,-0.022 -0.01799,-0.04 -0.03997,-0.04 -0.02199,0 -0.03997,0.018 -0.03997,0.04 0,0.022 0.01799,0.04 0.03997,0.04 0.02199,0 0.03997,-0.018 0.03997,-0.04 z m 7.355155,0 c 0,-0.022 -0.01799,-0.04 -0.03997,-0.04 -0.02199,0 -0.03997,0.018 -0.03997,0.04 0,0.022 0.01799,0.04 0.03997,0.04 0.02199,0 0.03997,-0.018 0.03997,-0.04 z m -7.246296,-0.31979 c 0.02531,-0.066 0.01117,-0.11992 -0.03142,-0.11992 -0.04259,0 -0.07744,0.054 -0.07744,0.11992 0,0.066 0.01414,0.11992 0.03142,0.11992 0.01728,0 0.05213,-0.054 0.07744,-0.11992 z m 72.999279,18.649265 c -0.0305,-0.0998 -0.28439,-0.64736 -0.56421,-1.21683 -0.27982,-0.56947 -0.47935,-1.05515 -0.44341,-1.07929 0.0359,-0.0241 0.74588,-0.49652 1.57765,-1.04975 0.83177,-0.55322 3.61008,-2.401735 6.17402,-4.107795 2.56394,-1.70606 4.70453,-3.14458 4.75687,-3.1967 0.0523,-0.0521 0.20308,-0.16318 0.33499,-0.24681 0.13191,-0.0836 0.43152,-0.29129 0.66578,-0.46148 0.23427,-0.17019 0.40797,-0.32741 0.386,-0.34937 -0.022,-0.022 -0.51942,0.20204 -1.10549,0.49778 -0.58605,0.29574 -1.49727,0.77854 -2.02492,1.07289 -0.52765,0.29435 -1.0673,0.59073 -1.19921,0.65861 -0.13191,0.0679 -0.81546,0.43631 -1.519,0.81872 -0.70353,0.38242 -1.54898,0.85005 -1.87876,1.03918 -0.32978,0.18913 -1.05163,0.59716 -1.6041,0.90674 -0.55247,0.30957 -1.32596,0.73383 -1.71886,0.94279 -0.39291,0.20896 -1.1461,0.63723 -1.67375,0.95172 -0.52765,0.314495 -1.27403,0.742045 -1.65863,0.950115 -0.69926,0.37831 -0.69926,0.37831 -1.06471,0.12687 -0.201,-0.13829 -0.38338,-0.29816 -0.4053,-0.35525 -0.0219,-0.0571 0.0671,-0.40446 0.19789,-0.771935 0.13074,-0.36746 0.47495,-1.21753 0.76491,-1.88904 0.28996,-0.67151 0.71184,-1.58888 0.93752,-2.03858 0.24278,-0.48378 0.59362,-1.02644 0.85923,-1.32897 0.24691,-0.28123 0.73331,-0.73097 1.08091,-0.99942 0.34759,-0.26845 0.94123,-0.71063 1.31919,-0.98262 0.37795,-0.27199 1.34784,-0.97353 2.15529,-1.55897 0.80744,-0.58545 1.90472,-1.38569 2.43839,-1.77831 0.53367,-0.39262 1.29409,-0.95177 1.68983,-1.24256 0.39574,-0.29079 1.23663,-0.90494 1.86864,-1.36478 0.63202,-0.45983 1.43741,-1.04608 1.78977,-1.30277 0.50144,-0.3653 0.65728,-0.44348 0.7172,-0.35977 0.0586,0.0819 0.0666,0.0759 0.0343,-0.0258 -0.0293,-0.092 0.0604,-0.20038 0.29226,-0.3531 0.18399,-0.12119 0.49642,-0.35384 0.69429,-0.51701 0.19787,-0.16316 0.59361,-0.46209 0.87942,-0.66427 0.28581,-0.20218 0.75935,-0.52907 1.0523,-0.72641 0.29295,-0.19734 0.7005,-0.40107 0.90566,-0.45273 0.21972,-0.0553 0.61864,-0.0754 0.97066,-0.0487 0.3798,0.0287 0.7199,0.10805 0.93311,0.21765 0.18453,0.0948 0.49284,0.32232 0.68514,0.50551 0.1923,0.18318 0.72839,0.90868 1.19132,1.61222 0.46293,0.70354 1.03316,1.56697 1.26719,1.91874 0.23402,0.35177 0.55497,0.81946 0.71322,1.03931 0.15826,0.21986 0.32142,0.48387 0.3626,0.58671 0.0412,0.10283 0.24942,0.4446 0.46279,0.7595 0.21335,0.31489 0.53501,0.80638 0.71478,1.09219 0.17978,0.28581 0.40817,0.69954 0.50753,0.91939 0.15155,0.3353 0.18116,0.5415 0.18372,1.27916 0.002,0.71016 -0.0264,0.93891 -0.15018,1.18849 -0.0843,0.16999 -0.27982,0.43202 -0.43454,0.58228 -0.15472,0.15026 -0.51739,0.42782 -0.80595,0.6168 -0.28855,0.18897 -0.75849,0.46586 -1.0443,0.61529 -0.28581,0.14944 -0.77149,0.43829 -1.07929,0.64189 -0.3078,0.2036 -0.86005,0.53988 -1.22723,0.74728 -0.36718,0.2074 -0.86012,0.50026 -1.09543,0.65078 -0.23532,0.15053 -0.44828,0.27369 -0.47324,0.27369 -0.025,0 -0.19759,0.0969 -0.3836,0.21527 -0.186,0.1184 -0.57203,0.34702 -0.85784,0.50804 -0.28581,0.16101 -0.80747,0.46491 -1.15924,0.67532 -0.35176,0.21042 -0.76549,0.46186 -0.91939,0.55878 -0.1539,0.0969 -0.54964,0.33101 -0.87942,0.52023 -0.32979,0.189225 -0.97736,0.566975 -1.43905,0.839455 -0.4617,0.27247 -1.05531,0.61349 -1.31914,0.75781 -0.26382,0.14432 -0.64157,0.379 -0.83944,0.52153 -0.19787,0.14252 -0.7555,0.48454 -1.23919,0.76005 -0.48368,0.27551 -1.09527,0.62641 -1.3591,0.77978 -0.26383,0.15337 -0.71353,0.39675 -0.99934,0.54084 -0.28582,0.14409 -0.75969,0.33557 -1.05306,0.42551 -0.44871,0.13757 -0.83587,0.17089 -2.4384,0.20986 -1.04774,0.0255 -2.25311,0.0642 -2.6786,0.086 -0.75069,0.0385 -0.77525,0.0343 -0.82904,-0.14173 z m 2.04236,-4.09884 c 0,-0.022 -0.018,-0.04 -0.04,-0.04 -0.022,0 -0.04,0.018 -0.04,0.04 0,0.022 0.018,0.04 0.04,0.04 0.022,0 0.04,-0.018 0.04,-0.04 z m 0.31979,-0.1599 c 0,-0.022 -0.018,-0.04 -0.04,-0.04 -0.022,0 -0.04,0.018 -0.04,0.04 0,0.022 0.018,0.04 0.04,0.04 0.022,0 0.04,-0.018 0.04,-0.04 z m 10.633,-0.15989 c 0,-0.022 -0.018,-0.04 -0.04,-0.04 -0.022,0 -0.04,0.018 -0.04,0.04 0,0.022 0.018,0.04 0.04,0.04 0.022,0 0.04,-0.018 0.04,-0.04 z m -10.11391,-0.11901 c 0.028,-0.0453 -0.004,-0.0587 -0.0752,-0.0314 -0.0682,0.0262 -0.12407,0.0617 -0.12407,0.079 0,0.0173 0.0339,0.0314 0.0752,0.0314 0.0414,0 0.0972,-0.0356 0.12407,-0.079 z M 121.225,99.477735 c 0,-0.022 -0.018,-0.04 -0.04,-0.04 -0.022,0 -0.04,0.018 -0.04,0.04 0,0.022 0.018,0.04 0.04,0.04 0.022,0 0.04,-0.018 0.04,-0.04 z m 0.31979,-0.15989 c 0,-0.022 -0.018,-0.04 -0.04,-0.04 -0.022,0 -0.04,0.018 -0.04,0.04 0,0.022 0.018,0.04 0.04,0.04 0.022,0 0.04,-0.018 0.04,-0.04 z m 5.91611,-1.83879 c 0,-0.022 -0.018,-0.04 -0.04,-0.04 -0.022,0 -0.04,0.018 -0.04,0.04 0,0.022 0.018,0.04 0.04,0.04 0.022,0 0.04,-0.018 0.04,-0.04 z m -8.07469,-0.15989 c 0,-0.022 -0.018,-0.04 -0.04,-0.04 -0.022,0 -0.04,0.018 -0.04,0.04 0,0.022 0.018,0.04 0.04,0.04 0.022,0 0.04,-0.018 0.04,-0.04 z m 0.1599,-0.1599 c 0,-0.022 -0.018,-0.04 -0.04,-0.04 -0.022,0 -0.04,0.018 -0.04,0.04 0,0.022 0.018,0.04 0.04,0.04 0.022,0 0.04,-0.018 0.04,-0.04 z m 0,-0.15989 c 0,-0.022 -0.018,-0.04 -0.04,-0.04 -0.022,0 -0.04,0.018 -0.04,0.04 0,0.022 0.018,0.04 0.04,0.04 0.022,0 0.04,-0.018 0.04,-0.04 z m 8.76756,-0.0133 c -0.0293,-0.0293 -0.0773,-0.0293 -0.1066,0 -0.0293,0.0293 -0.005,0.0533 0.0533,0.0533 0.0586,0 0.0826,-0.024 0.0533,-0.0533 z m 0.34644,-0.22652 c 0,-0.022 -0.018,-0.04 -0.04,-0.04 -0.022,0 -0.04,0.018 -0.04,0.04 0,0.022 0.018,0.04 0.04,0.04 0.022,0 0.04,-0.018 0.04,-0.04 z m 0.31978,-0.23984 c 0,-0.022 -0.018,-0.04 -0.04,-0.04 -0.022,0 -0.04,0.018 -0.04,0.04 0,0.022 0.018,0.04 0.04,0.04 0.022,0 0.04,-0.018 0.04,-0.04 z m -2.31847,-0.15989 c 0,-0.022 -0.018,-0.04 -0.04,-0.04 -0.022,0 -0.04,0.018 -0.04,0.04 0,0.022 0.018,0.04 0.04,0.04 0.022,0 0.04,-0.018 0.04,-0.04 z m 14.07073,-0.0799 c 0,-0.022 -0.018,-0.04 -0.04,-0.04 -0.022,0 -0.04,0.018 -0.04,0.04 0,0.022 0.018,0.04 0.04,0.04 0.022,0 0.04,-0.018 0.04,-0.04 z m -10.95278,-0.1599 c 0,-0.022 -0.018,-0.04 -0.04,-0.04 -0.022,0 -0.04,0.018 -0.04,0.04 0,0.022 0.018,0.04 0.04,0.04 0.022,0 0.04,-0.018 0.04,-0.04 z m 0,-0.23984 c 0,-0.022 -0.018,-0.04 -0.04,-0.04 -0.022,0 -0.04,0.018 -0.04,0.04 0,0.022 0.018,0.04 0.04,0.04 0.022,0 0.04,-0.018 0.04,-0.04 z m -1.6256,-0.33311 c -0.0293,-0.0293 -0.0533,-0.005 -0.0533,0.0533 0,0.0586 0.024,0.0826 0.0533,0.0533 0.0293,-0.0293 0.0293,-0.0773 0,-0.1066 z m 13.85754,-0.0666 c 0,-0.022 -0.018,-0.04 -0.04,-0.04 -0.022,0 -0.04,0.018 -0.04,0.04 0,0.022 0.018,0.04 0.04,0.04 0.022,0 0.04,-0.018 0.04,-0.04 z m -13.69764,-0.0933 c -0.0293,-0.0293 -0.0773,-0.0293 -0.1066,0 -0.0293,0.0293 -0.005,0.0533 0.0533,0.0533 0.0586,0 0.0826,-0.024 0.0533,-0.0533 z m 13.91084,-0.0799 c -0.0293,-0.0293 -0.0773,-0.0293 -0.10661,0 -0.0293,0.0293 -0.005,0.0533 0.0533,0.0533 0.0586,0 0.0826,-0.024 0.0533,-0.0533 z m 0.34643,-0.0666 c 0,-0.022 -0.018,-0.04 -0.04,-0.04 -0.022,0 -0.04,0.018 -0.04,0.04 0,0.022 0.018,0.04 0.04,0.04 0.022,0 0.04,-0.018 0.04,-0.04 z m 0.1599,-0.15989 c 0,-0.022 -0.018,-0.04 -0.04,-0.04 -0.022,0 -0.04,0.018 -0.04,0.04 0,0.022 0.018,0.04 0.04,0.04 0.022,0 0.04,-0.018 0.04,-0.04 z m -21.74568,-0.63973 c 0,-0.022 -0.018,-0.04 -0.04,-0.04 -0.022,0 -0.04,0.018 -0.04,0.04 0,0.022 0.018,0.04 0.04,0.04 0.022,0 0.04,-0.018 0.04,-0.04 z m 0.36569,-0.38408 c 0.0109,-0.0746 0.006,-0.13558 -0.0102,-0.13558 -0.0166,0 -0.0708,0.0761 -0.12061,0.16915 -0.0704,0.13164 -0.0682,0.1617 0.0102,0.13557 0.0554,-0.0185 0.10967,-0.0946 0.12061,-0.16914 z m 0.23391,-0.13558 c 0.0272,-0.044 0.0113,-0.0799 -0.0353,-0.0799 -0.0466,0 -0.0847,0.036 -0.0847,0.0799 0,0.044 0.0159,0.08 0.0353,0.08 0.0194,0 0.0575,-0.036 0.0847,-0.08 z m 22.95822,0.0267 c -0.0293,-0.0293 -0.0773,-0.0293 -0.1066,0 -0.0293,0.0293 -0.005,0.0533 0.0533,0.0533 0.0586,0 0.0826,-0.024 0.0533,-0.0533 z m -22.6784,-0.14662 c 0,-0.022 -0.018,-0.04 -0.04,-0.04 -0.022,0 -0.04,0.018 -0.04,0.04 0,0.022 0.018,0.04 0.04,0.04 0.022,0 0.04,-0.018 0.04,-0.04 z m 9.59368,-0.0799 c 0,-0.022 -0.018,-0.04 -0.04,-0.04 -0.022,0 -0.04,0.018 -0.04,0.04 0,0.022 0.018,0.04 0.04,0.04 0.022,0 0.04,-0.018 0.04,-0.04 z m 1.75884,0 c 0,-0.022 -0.018,-0.04 -0.04,-0.04 -0.022,0 -0.04,0.018 -0.04,0.04 0,0.022 0.018,0.04 0.04,0.04 0.022,0 0.04,-0.018 0.04,-0.04 z m -11.31254,-0.11992 c 0.0272,-0.044 0.0314,-0.0799 0.009,-0.0799 -0.022,0 -0.0622,0.036 -0.0894,0.0799 -0.0272,0.044 -0.0314,0.0799 -0.009,0.0799 0.022,0 0.0622,-0.036 0.0894,-0.0799 z m 5.79618,-4.19723 c 0,-0.022 -0.018,-0.04 -0.04,-0.04 -0.022,0 -0.04,0.018 -0.04,0.04 0,0.022 0.018,0.04 0.04,0.04 0.022,0 0.04,-0.018 0.04,-0.04 z m 0.13325,-0.17322 c -0.0293,-0.0293 -0.0533,-0.005 -0.0533,0.0533 0,0.0586 0.024,0.0826 0.0533,0.0533 0.0293,-0.0293 0.0293,-0.0773 0,-0.10659 z m 0.18654,-0.0666 c 0,-0.022 -0.018,-0.04 -0.04,-0.04 -0.022,0 -0.04,0.018 -0.04,0.04 0,0.022 0.018,0.04 0.04,0.04 0.022,0 0.04,-0.018 0.04,-0.04 z m 14.55041,-2.15865 c 0,-0.022 -0.018,-0.04 -0.04,-0.04 -0.022,0 -0.04,0.018 -0.04,0.04 0,0.022 0.018,0.04 0.04,0.04 0.022,0 0.04,-0.018 0.04,-0.04 z m 0,-0.1599 c 0,-0.022 -0.018,-0.04 -0.04,-0.04 -0.022,0 -0.04,0.018 -0.04,0.04 0,0.022 0.018,0.04 0.04,0.04 0.022,0 0.04,-0.018 0.04,-0.04 z m -10.07336,-0.95937 c 0,-0.022 -0.018,-0.04 -0.04,-0.04 -0.022,0 -0.04,0.018 -0.04,0.04 0,0.022 0.018,0.04 0.04,0.04 0.022,0 0.04,-0.018 0.04,-0.04 z m 0.15989,-0.15989 c 0,-0.022 -0.018,-0.04 -0.04,-0.04 -0.022,0 -0.04,0.018 -0.04,0.04 0,0.022 0.018,0.04 0.04,0.04 0.022,0 0.04,-0.018 0.04,-0.04 z m 0.55963,-0.39974 c 0,-0.022 -0.018,-0.04 -0.04,-0.04 -0.022,0 -0.04,0.018 -0.04,0.04 0,0.022 0.018,0.04 0.04,0.04 0.022,0 0.04,-0.018 0.04,-0.04 z m 0.23985,-0.15989 c 0,-0.022 -0.018,-0.04 -0.04,-0.04 -0.022,0 -0.04,0.018 -0.04,0.04 0,0.022 0.018,0.04 0.04,0.04 0.022,0 0.04,-0.018 0.04,-0.04 z m 7.91478,-0.0799 c 0,-0.022 -0.018,-0.04 -0.04,-0.04 -0.022,0 -0.04,0.018 -0.04,0.04 0,0.022 0.018,0.04 0.04,0.04 0.022,0 0.04,-0.018 0.04,-0.04 z m -7.51505,-0.0799 c 0,-0.022 -0.018,-0.04 -0.04,-0.04 -0.022,0 -0.04,0.018 -0.04,0.04 0,0.022 0.018,0.04 0.04,0.04 0.022,0 0.04,-0.018 0.04,-0.04 z m 0.0533,-0.17322 c -0.0293,-0.0293 -0.0773,-0.0293 -0.1066,0 -0.0293,0.0293 -0.005,0.0533 0.0533,0.0533 0.0586,0 0.0826,-0.024 0.0533,-0.0533 z m 0.34644,-0.14657 c 0,-0.022 -0.018,-0.04 -0.04,-0.04 -0.022,0 -0.04,0.018 -0.04,0.04 0,0.022 0.018,0.04 0.04,0.04 0.022,0 0.04,-0.018 0.04,-0.04 z m 6.39578,-0.79948 c 0,-0.022 -0.018,-0.04 -0.04,-0.04 -0.022,0 -0.04,0.018 -0.04,0.04 0,0.022 0.018,0.04 0.04,0.04 0.022,0 0.04,-0.018 0.04,-0.04 z m -0.10659,-0.17322 c -0.0293,-0.0293 -0.0773,-0.0293 -0.1066,0 -0.0293,0.0293 -0.005,0.0533 0.0533,0.0533 0.0586,0 0.0826,-0.024 0.0533,-0.0533 z M 93.199781,104.08347 c -0.48571,-0.25001 -1.07086,-0.5701 -1.30035,-0.7113 -0.22949,-0.1412 -0.43102,-0.25673 -0.44785,-0.25673 -0.0168,0 -0.27711,-0.1495 -0.57841,-0.33222 -0.3013,-0.18272 -0.99752,-0.62812 -1.54716,-0.98978 -0.54964,-0.36166 -1.44905,-1.0039 -1.99868,-1.42721 -0.54964,-0.423305 -1.15991,-0.904295 -1.35615,-1.068865 -0.19624,-0.16457 -0.57399,-0.49694 -0.83944,-0.73859 -0.26546,-0.24165 -0.89815,-0.85325 -1.40599,-1.3591 -0.50784,-0.50586 -1.19139,-1.23968 -1.519,-1.63073 -0.32761,-0.39104 -0.74347,-0.89471 -0.92412,-1.11926 -0.18065,-0.22455 -0.65018,-0.85798 -1.04339,-1.40762 -0.39321,-0.54964 -0.95924,-1.39072 -1.25783,-1.86908 -0.2986,-0.47835 -0.82364,-1.43172 -1.16676,-2.1186 -0.34313,-0.68688 -0.71416,-1.46473 -0.82452,-1.72855 -0.11036,-0.26383 -0.36597,-0.88864 -0.56802,-1.38848 -0.2313,-0.5722 -0.36724,-1.03116 -0.36705,-1.23918 1.6e-4,-0.18172 0.12914,-0.79809 0.28659,-1.36971 0.15745,-0.57162 0.3217,-1.2192 0.36498,-1.43905 0.0433,-0.21986 0.13267,-0.66956 0.19863,-0.99934 0.066,-0.32979 0.13911,-0.66652 0.16255,-0.74831 0.0291,-0.10152 0.15596,0.11412 0.39981,0.67955 0.19646,0.45554 0.40678,0.96244 0.46739,1.12645 0.0606,0.164 0.3391,0.75761 0.61886,1.31913 0.27977,0.56152 0.66441,1.30875 0.85476,1.66052 0.19035,0.35177 0.38105,0.68409 0.42379,0.73849 0.0427,0.0544 0.057,0.15291 0.0317,0.2189 -0.0253,0.066 -0.0138,0.11142 0.0255,0.10095 0.0393,-0.0105 0.28967,0.29925 0.55628,0.68825 0.26662,0.389 0.76378,1.06864 1.10481,1.5103 0.34103,0.44167 0.89786,1.12212 1.2374,1.51212 0.33954,0.38999 0.76249,0.85568 0.93988,1.03485 0.17739,0.17918 0.29876,0.36423 0.26971,0.41124 -0.0326,0.0527 -0.0147,0.0619 0.0466,0.024 0.0651,-0.0402 0.40553,0.23851 0.98583,0.80711 0.48753,0.4777 1.00958,0.98547 1.16012,1.12837 0.15054,0.14291 0.30608,0.25983 0.34565,0.25983 0.0396,0 0.072,0.0302 0.072,0.0671 0,0.0369 0.0899,0.10809 0.19987,0.15818 0.10993,0.0501 0.19987,0.12993 0.19987,0.17744 0,0.0475 -0.036,0.0641 -0.0799,0.037 -0.044,-0.0272 -0.0799,-0.007 -0.0799,0.0446 0,0.055 0.0671,0.0764 0.16162,0.0517 0.11095,-0.029 0.2907,0.062 0.57336,0.29048 0.22645,0.18301 0.60173,0.47664 0.83394,0.65253 0.23221,0.17588 0.9841,0.67955 1.67088,1.11926 0.68677,0.43971 1.37235,0.87956 1.52351,0.97744 0.15116,0.0979 0.69723,0.40369 1.21349,0.67956 0.51626,0.27587 1.33439,0.68766 1.81807,0.9151 0.48368,0.22744 1.13125,0.52576 1.43905,0.66294 0.3078,0.13717 0.67655,0.31003 0.81946,0.38414 0.14291,0.0741 0.25983,0.16869 0.25983,0.21019 0,0.0415 -0.0479,0.13226 -0.10654,0.20168 -0.0586,0.06943 -0.45652,0.683845 -0.88428,1.365405 -0.42776,0.68155 -1.00042,1.58842 -1.27256,2.01528 -0.27214,0.42685 -0.56676,0.86386 -0.6547,0.97112 -0.15989,0.19503 -0.15989,0.19503 -1.04299,-0.25953 z m 1.3761,-0.78149 c -0.0293,-0.0293 -0.0533,-0.005 -0.0533,0.0533 0,0.0586 0.024,0.0826 0.0533,0.0533 0.0293,-0.0293 0.0293,-0.0773 0,-0.1066 z m 0.18655,-0.0666 c 0,-0.022 -0.018,-0.04 -0.04,-0.04 -0.022,0 -0.04,0.018 -0.04,0.04 0,0.022 0.018,0.04 0.04,0.04 0.022,0 0.04,-0.018 0.04,-0.04 z m 0.13325,-0.25317 c -0.0293,-0.0293 -0.0533,-0.005 -0.0533,0.0533 0,0.0586 0.024,0.0826 0.0533,0.0533 0.0293,-0.0293 0.0293,-0.0773 0,-0.1066 z m 1.4657,-2.46504 c 0,-0.022 -0.018,-0.04 -0.04,-0.04 -0.022,0 -0.04,0.018 -0.04,0.04 0,0.022 0.018,0.04 0.04,0.04 0.022,0 0.04,-0.018 0.04,-0.04 z m -0.95937,-1.359115 c 0,-0.022 -0.018,-0.04 -0.04,-0.04 -0.022,0 -0.04,0.018 -0.04,0.04 0,0.022 0.018,0.04 0.04,0.04 0.022,0 0.04,-0.018 0.04,-0.04 z m -0.1599,-0.0799 c 0,-0.022 -0.018,-0.04 -0.04,-0.04 -0.022,0 -0.04,0.018 -0.04,0.04 0,0.022 0.018,0.04 0.04,0.04 0.022,0 0.04,-0.018 0.04,-0.04 z m -1.11926,-0.55963 c 0,-0.022 -0.018,-0.04 -0.04,-0.04 -0.022,0 -0.04,0.018 -0.04,0.04 0,0.022 0.018,0.04 0.04,0.04 0.022,0 0.04,-0.018 0.04,-0.04 z m -9.27389,-0.55964 c 0,-0.022 -0.018,-0.04 -0.04,-0.04 -0.022,0 -0.04,0.018 -0.04,0.04 0,0.022 0.018,0.04 0.04,0.04 0.022,0 0.04,-0.018 0.04,-0.04 z m 6.71558,-0.87942 c 0,-0.022 -0.018,-0.04 -0.04,-0.04 -0.022,0 -0.04,0.018 -0.04,0.04 0,0.022 0.018,0.04 0.04,0.04 0.022,0 0.04,-0.018 0.04,-0.04 z m -7.7549,-0.0799 c 0,-0.022 -0.018,-0.04 -0.04,-0.04 -0.022,0 -0.04,0.018 -0.04,0.04 0,0.022 0.018,0.04 0.04,0.04 0.022,0 0.04,-0.018 0.04,-0.04 z m -0.23984,-0.23985 c 0,-0.022 -0.018,-0.04 -0.04,-0.04 -0.022,0 -0.04,0.018 -0.04,0.04 0,0.022 0.018,0.04 0.04,0.04 0.022,0 0.04,-0.018 0.04,-0.04 z m 6.95542,-0.31979 c 0,-0.022 -0.018,-0.04 -0.04,-0.04 -0.022,0 -0.04,0.018 -0.04,0.04 0,0.022 0.018,0.04 0.04,0.04 0.022,0 0.04,-0.018 0.04,-0.04 z m -7.35515,-0.0799 c 0,-0.022 -0.018,-0.04 -0.04,-0.04 -0.022,0 -0.04,0.018 -0.04,0.04 0,0.022 0.018,0.04 0.04,0.04 0.022,0 0.04,-0.018 0.04,-0.04 z m -0.1599,-0.31979 c 0,-0.022 -0.018,-0.04 -0.04,-0.04 -0.022,0 -0.04,0.018 -0.04,0.04 0,0.022 0.018,0.04 0.04,0.04 0.022,0 0.04,-0.018 0.04,-0.04 z m -0.39974,-0.39974 c 0,-0.022 -0.018,-0.04 -0.04,-0.04 -0.022,0 -0.04,0.018 -0.04,0.04 0,0.022 0.018,0.04 0.04,0.04 0.022,0 0.04,-0.018 0.04,-0.04 z m -0.11992,-0.19987 c 0.0272,-0.044 0.0314,-0.0799 0.009,-0.0799 -0.022,0 -0.0622,0.036 -0.0894,0.0799 -0.0272,0.044 -0.0314,0.0799 -0.009,0.0799 0.022,0 0.0622,-0.036 0.0894,-0.0799 z m -0.04,-0.19987 c 0,-0.022 -0.018,-0.04 -0.04,-0.04 -0.022,0 -0.04,0.018 -0.04,0.04 0,0.022 0.018,0.04 0.04,0.04 0.022,0 0.04,-0.018 0.04,-0.04 z m 4.31716,-1.51899 c 0,-0.022 -0.018,-0.04 -0.04,-0.04 -0.022,0 -0.04,0.018 -0.04,0.04 0,0.022 0.018,0.04 0.04,0.04 0.022,0 0.04,-0.018 0.04,-0.04 z m -0.31979,-0.23985 c 0,-0.022 -0.018,-0.04 -0.04,-0.04 -0.022,0 -0.04,0.018 -0.04,0.04 0,0.022 0.018,0.04 0.04,0.04 0.022,0 0.04,-0.018 0.04,-0.04 z m -6.87547,-1.75884 c 0,-0.022 -0.018,-0.04 -0.04,-0.04 -0.022,0 -0.04,0.018 -0.04,0.04 0,0.022 0.018,0.04 0.04,0.04 0.022,0 0.04,-0.018 0.04,-0.04 z m 0.23984,0 c 0,-0.022 -0.018,-0.04 -0.04,-0.04 -0.022,0 -0.04,0.018 -0.04,0.04 0,0.022 0.018,0.04 0.04,0.04 0.022,0 0.04,-0.018 0.04,-0.04 z m -0.23984,-0.16012 c 0,-0.022 -0.018,-0.04 -0.04,-0.04 -0.022,0 -0.04,0.018 -0.04,0.04 0,0.022 0.018,0.04 0.04,0.04 0.022,0 0.04,-0.018 0.04,-0.04 z m 4.79684,-0.0799 c 0,-0.022 -0.018,-0.04 -0.04,-0.04 -0.022,0 -0.04,0.018 -0.04,0.04 0,0.022 0.018,0.04 0.04,0.04 0.022,0 0.04,-0.018 0.04,-0.04 z m -0.23984,-0.15989 c 0,-0.022 -0.018,-0.04 -0.04,-0.04 -0.022,0 -0.04,0.018 -0.04,0.04 0,0.022 0.018,0.04 0.04,0.04 0.022,0 0.04,-0.018 0.04,-0.04 z m -1.03932,-1.11927 c 0,-0.022 -0.018,-0.04 -0.04,-0.04 -0.022,0 -0.04,0.018 -0.04,0.04 0,0.022 0.018,0.04 0.04,0.04 0.022,0 0.04,-0.018 0.04,-0.04 z m -0.23984,-0.15989 c 0,-0.022 -0.018,-0.04 -0.04,-0.04 -0.022,0 -0.04,0.018 -0.04,0.04 0,0.022 0.018,0.04 0.04,0.04 0.022,0 0.04,-0.018 0.04,-0.04 z m -5.03668,-1.519 c 0,-0.022 -0.018,-0.04 -0.04,-0.04 -0.022,0 -0.04,0.018 -0.04,0.04 0,0.022 0.018,0.04 0.04,0.04 0.022,0 0.04,-0.018 0.04,-0.04 z m 2.8781,-1.11926 c 0,-0.022 -0.018,-0.04 -0.04,-0.04 -0.022,0 -0.04,0.018 -0.04,0.04 0,0.022 0.018,0.04 0.04,0.04 0.022,0 0.04,-0.018 0.04,-0.04 z m -0.18523,-0.37476 c -0.0255,-0.0638 -0.0445,-0.0448 -0.0483,0.0483 -0.004,0.0843 0.0154,0.1315 0.042,0.10493 0.0266,-0.0266 0.0294,-0.0955 0.006,-0.15323 z m -0.61424,-0.82445 c 0,-0.022 -0.018,-0.04 -0.04,-0.04 -0.022,0 -0.04,0.018 -0.04,0.04 0,0.022 0.018,0.04 0.04,0.04 0.022,0 0.04,-0.018 0.04,-0.04 z m -0.23984,-0.31508 c 0,-0.0194 -0.036,-0.0575 -0.08,-0.0847 -0.044,-0.0272 -0.0799,-0.0113 -0.0799,0.0352 0,0.0466 0.036,0.0847 0.0799,0.0847 0.044,0 0.08,-0.0159 0.08,-0.0353 z m -0.08,-0.3245 c 0,-0.022 -0.018,-0.04 -0.04,-0.04 -0.022,0 -0.04,0.018 -0.04,0.04 0,0.022 0.018,0.04 0.04,0.04 0.022,0 0.04,-0.018 0.04,-0.04 z m 19.27968,12.82362 c -0.61299,-0.0622 -0.92878,-0.15046 -1.75884,-0.49152 -0.55645,-0.22863 -1.58734,-0.70957 -2.29087,-1.06876 -0.70354,-0.35919 -1.49502,-0.78136 -1.75885,-0.93815 -0.26382,-0.15679 -0.75124,-0.42726 -1.08314,-0.60104 -0.33191,-0.17378 -0.7392,-0.45412 -0.9051,-0.62298 -0.16589,-0.16886 -0.50222,-0.61281 -0.74739,-0.98657 -0.24518,-0.37375 -0.59674,-0.9134 -0.78126,-1.19921 -0.18452,-0.28581 -0.5345,-0.86143 -0.77775,-1.27916 -0.24324,-0.41772 -0.62557,-1.12549 -0.84962,-1.57282 -0.22406,-0.44733 -0.62758,-1.34295 -0.89672,-1.99028 -0.26914,-0.64732 -0.53627,-1.3329 -0.59364,-1.5235 -0.0904,-0.30045 -0.0846,-0.43449 0.0434,-1.00774 0.0812,-0.36367 0.21866,-0.89505 0.30544,-1.18086 0.0868,-0.28582 0.23279,-0.89741 0.32447,-1.35911 0.0917,-0.46169 0.18668,-0.92697 0.2111,-1.03395 0.036,-0.15768 0.10192,-0.0517 0.34819,0.55963 0.16708,0.41478 0.60101,1.34775 0.96428,2.07327 0.36326,0.72552 0.8426,1.62493 1.0652,1.99868 0.22259,0.37376 0.63143,1.02839 0.90854,1.45474 0.27711,0.42636 0.75635,1.09192 1.06499,1.47903 0.30864,0.38711 0.69573,0.86468 0.86019,1.06127 0.16446,0.19659 0.51487,0.58809 0.7787,0.87 0.26383,0.28191 0.92938,0.91255 1.479,1.40141 0.54963,0.48886 1.08927,0.97086 1.19921,1.0711 0.10994,0.10025 0.54168,0.43879 0.9594,0.75233 0.41772,0.31353 0.88542,0.66593 1.03932,0.7831 0.1539,0.11717 0.7475,0.52001 1.31913,0.89521 0.57162,0.3752 1.201209,0.76344 1.399079,0.86276 0.19786,0.0993 0.41372,0.22657 0.47968,0.28278 0.066,0.0562 0.54532,0.32169 1.06526,0.58993 0.51993,0.26825 1.02261,0.54184 1.11706,0.608 0.0944,0.0662 0.15473,0.12211 0.13396,0.12433 -0.0208,0.002 -0.90121,0.0175 -1.95652,0.034 -1.0553,0.0165 -2.254939,-0.004 -2.665859,-0.0459 z m -1.39813,-0.685 c -0.0293,-0.0293 -0.0533,-0.005 -0.0533,0.0533 0,0.0586 0.024,0.0826 0.0533,0.0533 0.0293,-0.0293 0.0293,-0.0773 0,-0.10659 z m 3.677579,-0.47969 c -0.0293,-0.0293 -0.0773,-0.0293 -0.10659,0 -0.0293,0.0293 -0.005,0.0533 0.0533,0.0533 0.0586,0 0.0826,-0.024 0.0533,-0.0533 z m -6.529029,-0.78615 c 0,-0.022 -0.018,-0.04 -0.04,-0.04 -0.022,0 -0.04,0.018 -0.04,0.04 0,0.022 0.018,0.04 0.04,0.04 0.022,0 0.04,-0.018 0.04,-0.04 z m -0.23984,-0.0799 c 0,-0.022 -0.018,-0.04 -0.04,-0.04 -0.022,0 -0.04,0.018 -0.04,0.04 0,0.022 0.018,0.04 0.04,0.04 0.022,0 0.04,-0.018 0.04,-0.04 z m -0.39974,-0.1599 c 0,-0.022 -0.018,-0.04 -0.04,-0.04 -0.022,0 -0.04,0.018 -0.04,0.04 0,0.022 0.018,0.04 0.04,0.04 0.022,0 0.04,-0.018 0.04,-0.04 z m 0.47968,0 c 0,-0.022 -0.018,-0.04 -0.04,-0.04 -0.022,0 -0.04,0.018 -0.04,0.04 0,0.022 0.018,0.04 0.04,0.04 0.022,0 0.04,-0.018 0.04,-0.04 z m 0.23985,0 c 0,-0.022 -0.018,-0.04 -0.04,-0.04 -0.022,0 -0.04,0.018 -0.04,0.04 0,0.022 0.018,0.04 0.04,0.04 0.022,0 0.04,-0.018 0.04,-0.04 z m 0.15989,0 c 0,-0.022 -0.018,-0.04 -0.04,-0.04 -0.022,0 -0.04,0.018 -0.04,0.04 0,0.022 0.018,0.04 0.04,0.04 0.022,0 0.04,-0.018 0.04,-0.04 z m -1.75884,-0.47968 c 0,-0.022 -0.018,-0.04 -0.04,-0.04 -0.022,0 -0.04,0.018 -0.04,0.04 0,0.022 0.018,0.04 0.04,0.04 0.022,0 0.04,-0.018 0.04,-0.04 z m -0.1599,-0.31979 c 0,-0.022 -0.018,-0.04 -0.04,-0.04 -0.022,0 -0.04,0.018 -0.04,0.04 0,0.022 0.018,0.04 0.04,0.04 0.022,0 0.04,-0.018 0.04,-0.04 z m -0.55963,-0.1599 c 0,-0.022 -0.018,-0.04 -0.04,-0.04 -0.022,0 -0.04,0.018 -0.04,0.04 0,0.022 0.018,0.04 0.04,0.04 0.022,0 0.04,-0.018 0.04,-0.04 z m 5.67626,0 c 0,-0.022 -0.018,-0.04 -0.04,-0.04 -0.022,0 -0.04,0.018 -0.04,0.04 0,0.022 0.018,0.04 0.04,0.04 0.022,0 0.04,-0.018 0.04,-0.04 z m -5.83615,-0.0799 c 0,-0.022 -0.018,-0.04 -0.04,-0.04 -0.022,0 -0.04,0.018 -0.04,0.04 0,0.022 0.018,0.04 0.04,0.04 0.022,0 0.04,-0.018 0.04,-0.04 z m 0.31979,0 c 0,-0.022 -0.018,-0.04 -0.04,-0.04 -0.022,0 -0.04,0.018 -0.04,0.04 0,0.022 0.018,0.04 0.04,0.04 0.022,0 0.04,-0.018 0.04,-0.04 z m 5.11663,-0.1599 c 0,-0.022 -0.018,-0.04 -0.04,-0.04 -0.022,0 -0.04,0.018 -0.04,0.04 0,0.022 0.018,0.04 0.04,0.04 0.022,0 0.04,-0.018 0.04,-0.04 z m -5.78286,-0.17322 c -0.0293,-0.0293 -0.0533,-0.005 -0.0533,0.0533 0,0.0586 0.024,0.0826 0.0533,0.0533 0.0293,-0.0293 0.0293,-0.0773 0,-0.1066 z m 0.23984,0.08 c -0.0293,-0.0293 -0.0773,-0.0293 -0.1066,0 -0.0293,0.0293 -0.005,0.0533 0.0533,0.0533 0.0586,0 0.0826,-0.024 0.0533,-0.0533 z m 4.5037,-0.46636 c 0,-0.022 -0.018,-0.04 -0.04,-0.04 -0.022,0 -0.04,0.018 -0.04,0.04 0,0.022 0.018,0.04 0.04,0.04 0.022,0 0.04,-0.018 0.04,-0.04 z m -5.51636,-0.0799 c 0,-0.022 -0.018,-0.04 -0.04,-0.04 -0.022,0 -0.04,0.018 -0.04,0.04 0,0.022 0.018,0.04 0.04,0.04 0.022,0 0.04,-0.018 0.04,-0.04 z m 5.7562,0 c 0,-0.022 -0.018,-0.04 -0.04,-0.04 -0.022,0 -0.04,0.018 -0.04,0.04 0,0.022 0.018,0.04 0.04,0.04 0.022,0 0.04,-0.018 0.04,-0.04 z m -0.47968,-0.31979 c 0,-0.022 -0.018,-0.04 -0.04,-0.04 -0.022,0 -0.04,0.018 -0.04,0.04 0,0.022 0.018,0.04 0.04,0.04 0.022,0 0.04,-0.018 0.04,-0.04 z m -0.39974,-0.0799 c 0,-0.022 -0.018,-0.04 -0.04,-0.04 -0.022,0 -0.04,0.018 -0.04,0.04 0,0.022 0.018,0.04 0.04,0.04 0.022,0 0.04,-0.018 0.04,-0.04 z m -5.83615,-0.95937 c 0,-0.022 -0.018,-0.04 -0.04,-0.04 -0.022,0 -0.04,0.018 -0.04,0.04 0,0.022 0.018,0.04 0.04,0.04 0.022,0 0.04,-0.018 0.04,-0.04 z m -0.31979,-0.47968 c 0,-0.022 -0.018,-0.04 -0.04,-0.04 -0.022,0 -0.04,0.018 -0.04,0.04 0,0.022 0.018,0.04 0.04,0.04 0.022,0 0.04,-0.018 0.04,-0.04 z m 0,-0.1599 c 0,-0.022 -0.018,-0.04 -0.04,-0.04 -0.022,0 -0.04,0.018 -0.04,0.04 0,0.022 0.018,0.04 0.04,0.04 0.022,0 0.04,-0.018 0.04,-0.04 z m -0.1599,-0.16011 c 0,-0.022 -0.018,-0.04 -0.04,-0.04 -0.022,0 -0.04,0.018 -0.04,0.04 0,0.022 0.018,0.04 0.04,0.04 0.022,0 0.04,-0.018 0.04,-0.04 z m -0.15989,-0.1599 c 0,-0.022 -0.018,-0.04 -0.04,-0.04 -0.022,0 -0.04,0.018 -0.04,0.04 0,0.022 0.018,0.04 0.04,0.04 0.022,0 0.04,-0.018 0.04,-0.04 z m 0.15989,0 c 0,-0.022 -0.018,-0.04 -0.04,-0.04 -0.022,0 -0.04,0.018 -0.04,0.04 0,0.022 0.018,0.04 0.04,0.04 0.022,0 0.04,-0.018 0.04,-0.04 z m -0.0799,-0.23512 c 0,-0.0194 -0.0415,-0.0609 -0.0923,-0.0923 -0.0572,-0.0353 -0.0706,-0.0219 -0.0352,0.0352 0.0314,0.0508 0.0729,0.0923 0.0923,0.0923 0.0194,0 0.0353,-0.0159 0.0353,-0.0353 z m -0.31979,-0.16462 c 0,-0.022 -0.018,-0.04 -0.04,-0.04 -0.022,0 -0.04,0.018 -0.04,0.04 0,0.022 0.018,0.04 0.04,0.04 0.022,0 0.04,-0.018 0.04,-0.04 z m 0.08,-0.15989 c 0,-0.022 -0.018,-0.04 -0.04,-0.04 -0.022,0 -0.04,0.018 -0.04,0.04 0,0.022 0.018,0.04 0.04,0.04 0.022,0 0.04,-0.018 0.04,-0.04 z m -0.10659,-0.25317 c -0.0293,-0.0293 -0.0533,-0.005 -0.0533,0.0533 0,0.0586 0.024,0.0826 0.0533,0.0533 0.0293,-0.0293 0.0293,-0.0773 0,-0.1066 z m -0.2132,-0.38641 c 0,-0.022 -0.018,-0.04 -0.04,-0.04 -0.022,0 -0.04,0.018 -0.04,0.04 0,0.022 0.018,0.04 0.04,0.04 0.022,0 0.04,-0.018 0.04,-0.04 z m -0.47968,-0.39974 c 0,-0.022 -0.018,-0.04 -0.04,-0.04 -0.022,0 -0.04,0.018 -0.04,0.04 0,0.022 0.018,0.04 0.04,0.04 0.022,0 0.04,-0.018 0.04,-0.04 z m 3.83747,-0.23984 c 0,-0.022 -0.018,-0.04 -0.04,-0.04 -0.022,0 -0.04,0.018 -0.04,0.04 0,0.022 0.018,0.04 0.04,0.04 0.022,0 0.04,-0.018 0.04,-0.04 z m -2.15858,-2.79815 c 0,-0.022 -0.018,-0.04 -0.04,-0.04 -0.022,0 -0.04,0.018 -0.04,0.04 0,0.022 0.018,0.04 0.04,0.04 0.022,0 0.04,-0.018 0.04,-0.04 z m -3.11794,-0.1599 c 0,-0.022 -0.018,-0.04 -0.04,-0.04 -0.022,0 -0.04,0.018 -0.04,0.04 0,0.022 0.018,0.04 0.04,0.04 0.022,0 0.04,-0.018 0.04,-0.04 z m 2.79816,-0.39974 c 0,-0.022 -0.018,-0.04 -0.04,-0.04 -0.022,0 -0.04,0.018 -0.04,0.04 0,0.022 0.018,0.04 0.04,0.04 0.022,0 0.04,-0.018 0.04,-0.04 z m -0.08,-0.15989 c 0,-0.022 -0.018,-0.04 -0.04,-0.04 -0.022,0 -0.04,0.018 -0.04,0.04 0,0.022 0.018,0.04 0.04,0.04 0.022,0 0.04,-0.018 0.04,-0.04 z m -0.1599,-0.23984 c 0,-0.022 -0.018,-0.04 -0.04,-0.04 -0.022,0 -0.04,0.018 -0.04,0.04 0,0.022 0.018,0.04 0.04,0.04 0.022,0 0.04,-0.018 0.04,-0.04 z m -2.10528,-3.77085 c -0.0293,-0.0293 -0.0533,-0.005 -0.0533,0.0533 0,0.0586 0.024,0.0826 0.0533,0.0533 0.0293,-0.0293 0.0293,-0.0773 0,-0.10659 z m 0,-0.39974 c -0.0293,-0.0293 -0.0533,-0.005 -0.0533,0.0533 0,0.0586 0.024,0.0826 0.0533,0.0533 0.0293,-0.0293 0.0293,-0.0773 0,-0.1066 z"
       id="path1583-6"
       inkscape:export-filename="path1583-6.svg"
       inkscape:export-xdpi="96"
       inkscape:export-ydpi="96" /></g></svg>
